<?xml version="1.0" encoding="UTF-8"?>
<svg id="Capa_1" data-name="Capa 1" xmlns="http://www.w3.org/2000/svg" viewBox="0 0 500 517">
  <path d="M167.47,230.13l-2.93-11.73,2.92.98c.58-3.01-1.49-6.45-1.01-9.28.1-.58,6.35.15,1.02-6.36,5.5,1.07.89-3.82,1.97-7.84l3.9.97v-13.69s2.93.98,2.93.98v-7.82s5.87,2.93,5.87,2.93l1-12.72,2.92.97-.97-6.84,3.9.97,1.97-12.72,2.92.97.02-6.85,3.89,1.96c-.02-1.38.69-8.31,1.1-8.69.56-.51,3.13.42,4.32-1.06s1.58-10.15,2.43-10.79c.5-.38,3.33,2.62,4.88,1.96-.71-1.7,3.82-10.75,4.41-10.75,2.88,1.78,4.36,5.49,8.31,4.87-.46-5.17-3.77-7.8-2.93-13.68l4.9,1.47,2.94-10.29,3.89,2.93,1.98-10.76,2.92.98c-1.64-4.15.58-6.94.84-10.25.23-2.95-3.04-2.9,2.17-4.01,3.23-18.21,2.3-36.42,3.92-54.71.02-.28-1.61-5.87.92-3.94,1,.76,1.27,3.2,2.92,3.44.01-2.21.72-4.4,2.46-5.87,1.34,2.99,2.33,6.39,3.13,9.58,3.94,15.58,6.04,31.53,10.02,45.92.42,1.51.53,8.49,1.03,9.08l2.92-.98c.4,1.89-.52,10.07.01,10.76,1.75,2.25,1.73-2.53,2.92-1.94l1,6.84,2.92-.98,2.95,10.77,3.89-2.93c-.02,1.72,3.83,10.74,4.41,10.75.4,0,1.55-1.93,1.96-1.93,1.52,0,2.73,8.02,2.46,9.77l3.89-2.94c0,2.3.16,5.95,1.46,7.85,1.57,2.29,1.88-.87,2.36-1.34,3.12-3.09,2.21,4.37,3.05,5.24,1.99,2.05,1.58-2.49,2.92-1.95l1.98,9.78c2.84.52,2.66-3.23,4.87-3.91l1.97,10.76c.33.37,3.37-.69,3.71-1.22.62-.96-.61-2.99,1.17-2.69l.99,14.67,3.9-1.95c1.44,4.12.96,8.42,1,12.72l3.9-.97v11.73s2.93-.97,2.93-.97v12.71s3.91-.97,3.91-.97c-.24,5.58,1.89,10.12.02,15.65l3.9-.97c-1.22,4.54.15,8.73.09,13.23-.02,1.37-1.27,5.18-1.07,5.35.3.26,2.46-.35,2.84.05.29.31.99,7.43.99,8.39,0,2.05-2.57,7.5-1.87,8.2.29.29,2.64-.29,2.94,0,.73.72-1.84,7.09-1.87,8.39-.01.53,2.04-.06,1.9,1.78-.12,1.67-3.56,8.88-2.97,9.4h3.92c.17,2.32-1.58,4.97-1.02,7.2.19.77,2.16.57,2,1.1-.36,1.18-3.86,7.54-2.94,8.33.68.59,2.9-1.36,2.99,1.47.18,5.81-3.65,9.55-4.01,12.79-.23,2.02,2.21.76,1.9,2.65-.49,3.02-3.39,6.71-3.83,9.99l2.96.51c.29.29-2.07,6.75-2.54,7.73-1.46,3.08-7.22,5.99.57,6.44-1.09,2.67-8.54,12.13-8.69,13.84-.23,2.57,2.67,1.67,3.8,2.79-.51,1.77-4.58,5.24-4.73,5.58-.4.91,1.02,2.25.38,3.7-1.05,2.36-8.9,5.88-3.47,7.36-1.77,2.54-8.72,7.98-3.91,8.81l-6.84,7.85c-.51,2,1.07.97,1.96,1.93l-5.87,7.85,2.92,1.94c-4.38,3.32-4.71,8.88-10.75,10.31-1.01,2.38,3.16,2.75,2.93,3.4-.17.45-5.77,5.75-6.87,6.85-4.14,4.14-8.47,9.42-12.7,13.66-1.96,1.97-9.95,5.65-13.18,8.38-8.46,7.16-5.94,6.83-8.79,15.67-.81,2.52-2.94,5.14-3.92,7.82-5.32,14.54-9.53,35.49-16.09,48.49-2.2,4.35-9.74,6.03-9.96,1.88,1.96-14.51,6.57-29.58,7.96-44.09.23-2.44-1.09-4.6-.83-6.59.78-5.94,5.92-6.01-.2-14.88-4.2-6.09-5.65-10.43-9.07-15.88-.54-.86-3.34-1.4-4.09-3.19-1.02-2.44-3.91-10.82-5.36-13.25-1.4-2.34-6.08-6.25-7.89-8.79l2.92-2.42c-3.89-.76-4.02-6.76-6.85-9.32l1.96-.96-6.84-7.84,2.93-.97-5.96-5.87c-1.05-4.62-4.49-9.9-7.73-13.7-.49-1.11,3.75.64,2.92-1.94-.55-1.72-6.25-8.58-7.75-11.91-1.05-2.33-.36-4.08-1.79-6.88-1.48-2.89-4.93-6.98-7.07-9.61,6.92-.48-1.08-5.87-2.4-8.38-1.23-2.34-1.1-8.48-1.74-10.96-.73-2.82-6.58-9.28-7.59-12.95l3.9-.97c-3.36-3.79-2.22-9.13-5.86-12.73l2.94-.49c-1.65-2.55-1.07-6.01-1.59-7.85-.71-2.5-5.42-4.58.6-5.35-.93-2.04-3.41-6.01-3.92-7.86-.14-.52,1.58-.44,1.71-.66.99-1.79-2.4-4.91-3.65-6.17,1.06-1.45,4.32.98,3.92-1.95-.24-1.75-2.72-7.64-4.89-7.35l3.91-.97Z"/>
</svg>