<?xml version="1.0" encoding="UTF-8"?>
<svg id="Capa_1" data-name="Capa 1" xmlns="http://www.w3.org/2000/svg" viewBox="0 0 500 517">
  <path d="M316.33,368.47c-1.49-2.63-2.61-5.53-4.9-7.52l-1.21,2.17c-.84-.18-1.66-.75-2.56-.73-21.92.54-30.66,11.48-49.07,20.27-4.75,2.27-17.61,8.01-22.34,6.88-.61-.15-.2-1.37-1.6-1.55-2.5-.33-5.69.32-8.3.11l-.83-2.36c-3.75-.32-8.45.59-12.05.09-1.68-.23-2.62-1.36-3.76-1.51-3.07-.41-6.64.27-9.75-.8-1.92-.66-1.73-2.1-2.41-2.26-4.46-1.08-10.14-.23-15.3-2.61-2.32-1.07,1.41-1.06.76-1.88-2.21.17-8.34-1.09-9.34-3.01-.25-.47.35-1.44.29-1.48-.34-.21-2.03-.01-3-.4-2.76-1.09-10.87-3.69-9.03-7.17-3.84.23-6.7-2.22-9.04-4.91l1.49-2.62c-1.84,1.08-8.52-2.22-8.86-3.49-.12-.47.59-1.42.45-1.67-.18-.33-4.65-2.24-5.6-3.11-1.08-1-.33-2.03-.44-2.15-.33-.33-5.43-2.6-7.86-4.51-2.08-1.64-5.55-2.09-4.04-5.4l-8.3-3.03,1.5-2.99c-2.83.34-7.66-1.56-9.32-3.78-2.37-3.15-3.68-2.28-6.03-4.6-1.23-1.21-1.2-2.59-2.42-3.61-1.41-1.18-5.4-2.03-6.6-3.04-.73-.62-.23-1.74-.96-2.36-1.24-1.06-4.84-1.42-6.35-2.59l.06-2.63c-2.08.26-5.44-1.22-6.82-2.68-.67-.71,0-1.59-.12-1.72-.48-.51-10.33-5.04-12.19-6.26-2.17-1.42-15.33-11.53-16.37-13.04s1.15-2.6-2.16-3.8c1.19-.7,3.67.67,4.8,1.23,13.13,6.47,29.54,13.74,44.7,13.23,1.97-.07,3.27-1.86,5.18-2.03,4.35-.38,5.06-.64,9.15-1.33,8.3-1.4,17.22-1.5,25.48-2.4,5.61-.61,11.31,1.02,16.91,1.46-.47-1.73-2.46-1.18-3.72-1.95-1.9-1.16-6.04-5.3-6.5-5.61-2.84-1.93-10.13-3.49-11.65-4.87-.63-.57.01-1.7-.69-2.22-1.21-.89-3.66-1.05-5.27-2.31-2.35-1.84-4.74-5.59-7.97-7.12l1.17-2.26c-2.28.37-8.06-3.28-8.64-5.21-.19-.64.53-1.67.22-2.15-2.65-4.09-7.74-5.11-10.2-7.18-1.08-.91-3.7-8.43-4.89-9.41-.65-.53-9.75-2.82-5.11-5.06l-10.49-9.84c-.55-3.42-4.16-4.3-5.41-5.95-.94-1.23.11-2.31-.03-2.55-1.63-2.67-18.18-11.33-21.52-14.62-.48-.47-4.38-7.71-3.96-8.08,3.38-.82,3.35,1.86,5.47,3.18.82.51,13.89,5.61,14.67,5.74,8.35,1.31,17.04,1.01,25.28,1.06,2.02.01,5.56,1.88,7.83,1.85,1.5-.02,2.54-1.29,4.34-1.32,4.4-.06,11.72,1.36,16.6,1.53,5.15.19,13.19-.71,18.03.05,2.68.42,5.22,2.93,7.75,3.55,10.54,2.58,23.57,2.81,33.28,6.63,2.2.87,4.14,3.52,6.85,3.32-3.65-4.18-8.88-7.14-12.83-10.88-5-4.75-10.99-12.33-13-18.33-.1-.29-3.91-2.89-4.68-3.97-.96-1.36-.48-2.56-.97-3.47-1.48-2.76-4.13-5.03-3.92-8.52l2.26-.75c-2.37-.6-4.34-6.39-5.04-8.89-.6-2.12-1.93-5.44.54-5.79-1.6-2.38-2.91-9.28-2.25-11.94.17-.69,1.62-.19,1.52-1.55-.26-3.42-3.21-8.8-2.28-12.77.14-.58,1.42-.47,1.41-.82-.1-3.02-.19-4.46-.14-7.41.07-3.67-4-4.36-.5-5.45-2.88-3.15-.18-5.04-.22-7.67-.02-1.41-2.15-3.78-1.99-5.92.07-1.01,1.1-1.69,1.2-2.34.08-.53.29-9.03.3-10.42.03-3.21-3.24-9.27-.05-10.6-.53-2.64-2-9.01-.78-11.11.32-.55,1.55-.45,1.49-.86-.16-1.31-1.72-2.95-1.57-5.34.06-1.05.76-.11.91-3.8.16-3.77.64-5.23-1.63-8.95l1.59-.78c-.29-1.62-1.82-3.25-1.96-4.83-.3-3.46-.32-8.52.06-12.13-2-1.85-4.96-18.03-4.17-18.8l4.49.04c.03,1.43.23,2.8.75,4.15,4.17,10.94,10.69,23.54,18.07,32.2,2.43,2.85,8.18,7.19,10.64,9.89,2.56,2.81,5.94,7.48,9.24,9.97,1.57,1.18,5.01,2.21,6.58,3.59,1.79,1.58,2.41,4.96,3.07,5.56.09.08,1.39-.42,2.4.18,1.73,1.04,2.09,3.04,3.52,4.09s3.23.93,4.55,2.23c1.43,1.43,1.94,4.74,2.93,5.92.66.79,2.09.62,3.1,1.59,1.67,1.63,2.7,3.52,5.27,6.03,1.32,1.28,5.85,9.09,6.97,10.01,2.92,2.41,5.42,5.48,7.96,8.23s4.84,7.71,6.36,9.08c1.05.96,2.75.77,3.88,2.52,1.7,2.61,3.81,9.8,5.48,13.32,3.49,7.37,6.59,19.94,7.78,28.41.9,6.4-1.46,13.51-.79,20,1.49-.31,1.29-1.54,1.49-2.64.61-3.26,1.97-14.58,2.93-16.61.82-1.75,2.34-1.73,2.79-3.27,1.08-3.77.8-9.16,1.98-13.13l2.1-.5c-1.22-5.67,2.11-6.9,4.11-9.82,6.12-8.95,8.68-20.66,16.22-29.75,1.6-1.93,5.69-5.28,7.12-7.19,1.2-1.6,2.42-7.02,3.81-8.25,1.17-1.03,2.79-.35,3.48-1.21.22-.27,2.83-4.84,3.24-5.62.75-1.41.64-4.61,2.43-5.03.51-.12,1.57.62,1.72.52.3-.2,2.24-5.38,2.87-6.52,4.93-8.97,8.47-18.5,13.74-27.13,1.52-2.49,2.2-5.53,5.3-6.97-.55,7.49-4.01,14.3-5.63,21.48-1.78,7.92-2.53,16.75-1.23,24.92,1.56,9.85,2.71,22.22,5.37,32.91.15.6,1.41.48,1.51,1.02.39,2.02-1.65,5.68-1.54,7.35.03.45,1.37.36,1.51.94.41,1.71-.4,4.04.02,5.76.14.56,1.39.45,1.51,1.04.87,4.4-.71,14.96.22,20.82.7,4.39,3.99,10.61,4.35,14.43.25,2.65-1.15,6.63-2.32,9.06l2.25-.39c2.07,5.01-2.68,9.5-1.49,14.32l2.31-.45c1.28-2.28,1.04-6.16,2.27-8.13.73-1.17,3.93-4.01,5.65-6.43,5.78-8.13,13.33-13.99,19.09-21.72,3.46-4.65,3.02-4.44,7.16-8.48,1.27-1.23,1.8-4.76,3.06-5.98.85-.83,2.31-.82,3.01-1.51,7.07-6.92,12.93-22.6,16.74-32.26.45-1.15-.43-2.03,1.7-1.65,1.19,7.04-1.57,13.5-2.6,20.23-1.22,7.98-2.74,17.09-2.7,25.37.02,3.64.64,7.43,1.48,9.96,1.32,3.96-.05,5.43.04,8.03.02.45,1.39.35,1.53.93.31,1.31-.3,2.94,0,4.28.13.57,1.47.48,1.54.97.22,1.51-2.11,6.17-2.22,8.24-.02.37,1.32-.03,1.49,1.4.42,3.43-.91,7.32-.84,9.79.02.49,1.4.07,1.59,1.51.42,3.18-1.49,6.9-1.21,9.09.1.8,1.22,1.61,1.23,3.01.01,2.45-3.4,3.53-.03,4.59l-1.61,5.16,1.57,1.45c-.14,3.02-2.99,8.35-3.11,10.67-.08,1.45,1.62.71,1.67,2.2.11,3.01-2.45,7.56-2.28,9.86.08,1.11,1.38,1.86,1.32,2.85-.06.89-2.81,5.98-3.33,8.03-.73,2.85-.24,5.48-2.02,9.21-2.16,4.52-4.76,9.61-7.5,13.59-.52.75-2.65,3.64-2.08,4.32,1.73-1.78,4.35-3.17,6.04-4.88,5.68-5.75,10.39-12.68,16.52-18.13,10.74-9.53,33-22.68,39.33-34.48,1.4-2.61,1.25-6.12,4.01-8.04,1.04,6.86-1.18,13.49-1.56,20.1-.17,2.9.8,5.82.79,8.13-.04,11.43-1.5,23.68-1.12,34.65.04,1.26-1.89,2.48-2.15,3.94-1.11,6.11-.94,13.2-1.62,19.34-.23,2.04-2.81,5.84-2.99,7.64-.03.33,1.37.26,1.51.83.56,2.26-1.36,5.41-1.86,7.69-1.32,5.97-2.1,13.02-3.8,18.93-.73,2.53-2.08,4.78-4.14,6.41l1.44,1.4c-.71,3.13-3.48,5.62-4.73,8.01-.31.59.17,1.78-.28,2.78-.73,1.62-2.46,2.43-3.21,3.64-1.24,2,2.36-.51,1.49,1.48-.51,1.16-2.24,3.9-3.03,5.1s-5.62,6.33-5.79,6.74c-.2.47.65,1.73-.15,3.08-.51.85-10.88,8.83-12.82,10.76-1.24,1.23-.65,2.73-2.84,3.94-12.09,6.64-27.33,3.16-40.35,4.09-5.29,6.31-20.14,8.52-15.39,18.83,6.77,22.28,16.59,44.62,22.59,67.04.9,3.36,1.9,6.87,2.04,10.38l-27.12-84.36c-2.75.16-2.07,2.8-2.26,3.01-.17.2-1.74-.56-2.51-.49-2.74.24-14.72,4.75-16.7,6.51-3.34,2.96-5.8,14.07-8.26,18.85-5.9,11.46-13.65,17.52-24.56,23.66-1.41.79-8.98,5.22-9.73,5.39-2.81.66-6.28-.74-9.53,2.49l-1.33-1.36c-3.11.84-6.33,1.13-9.48,1.8-1.84.39-4.05,1.78-5.73,1.91-1.43.11-.63-1.57-2.14-1.62-2.45-.08-5.54,1.53-8.32.84l.38-1.5c-.69-.48-3.87,2.12-6.29,1.51-.57-.15-.47-1.51-.93-1.53-2.12-.1-5.72,1.51-8.84.75-.27-.06-1.42-2.64-4.25-1.56l-.03-2.19c-2.13-.03-4.87,1.66-6.8.37-.55-.37-.53-1.86-1.17-1.9s-1.83.86-2.95.8c-2.09-.12-4.39-1.13-6.68-.88l-.48-2.14c-2.53-.39-6.21.53-8.52-.02-.57-.14-.46-1.35-1.03-1.48-1.99-.45-4.79.39-7.03-.77l.76-2.24c-3.27.21-7.23-.95-10.38-2.03-.77-.27-.57-1.31-2.01-1.8-2.84-.97-5.88-.18-8.18-.71-2.63-.6-5.54-2.13-9.78-3.02-.86-.18-10.03-4.44-10.64-4.41-5.16.26-18.95-1.97-24.72-3.91-.87-.29-1.36-2.99-4.33-1.47,5.18-4.71,13.49-2.35,19.9-3.07,11.17-1.25,34.56-13.64,44.42-19.63,16.25-9.88,31.41-14.71,50.62-18.64,2.34-.48,4.67-1.02,7.08-.84l-.75-1.48c4.59-1.38,6.76,1.48,12.24.55,10.9-1.84,18.82-7.79,31.55-6.92,4.16.28,5.52.65,9.74.67,10.04.05,22.9,13.93,24.12,23.68,4.62.44,9.18-.04,13.48-1.82.83-.34,6.39-3.29,6.63-3.58,1.28-1.51-1.87-2.03,3.92-1.68-8.78-14.32-20-30.28-24.85-46.33,3.28,5.79,5.71,11.99,8.91,17.83,2.54,4.64,12.07,22.16,15.23,24.68,5.76,4.6,14.56-3.71,19.2-7.12l.35-1.09c.08-2.47-7.28-9-9.03-11.35-4.79-6.43-7.24-12.87-6.08-21.11.8-5.7,4.07-14.07,5.66-19.16.77-2.48,1.74-4.91,1.92-7.54l2.25.76c.19-1.9.44-4.94,1.28-6.58.61-1.19,1.85-1.24,2.41-2.14.87-1.39,3.56-11.88,3.1-12.37-1.3-.34-1.51.54-2.26,1.12-7.11,5.49-12.2,9.84-20.42,14.22-5.02,2.67-10.62,4.7-15.72,7.24,2.69-7.22-6.88-13.19-10.86-18.89-6.97-9.97-6.33-16.63-10.27-27.42l1.48-.7c-.85-3.38-2.07-7.76-1.27-11.2.6-2.62,3.19-2.53,3.47-4.84.32-2.57-1.33-5.77-.6-8.74.14-.57,1.35-.48,1.47-1.03.34-1.54-.4-3.53.12-5.05.35-1.02,3.92-1.64,1.78-4.98l-23.3,15.87c-1.9,1.87-7.99,14.57-8.41,17.26-.93,6,9.5,19.84,10.99,26.37l-12.81-22.96c-5.32-.54-12.37-4.49-17.6-4.13s-10.41,5.93-15.52,7.12c3.92,2.11,9.12,3.49,12.75,6.08s15.06,14.15,17.71,17.69c2.34,3.13,7.05,15.58,8.16,19.71,1.28,4.75,2.04,9.96,2.08,14.87,7.95,1.45,16.25-.13,24.08-1.85v-3.39s2.24.75,2.24.75l-11.9-17.09-5.41-10.03c5,4.85,14.58,24.82,21.02,26.01,4.28-.17,5.34-6.31,9.09-7.17.91.9-6.9,9.21-7.38,11.11-.43,1.72,1.43,6.98,2.11,9.22ZM257.39,226.73c.16-.32-.83-5.87-1-6.99-.11-.73.06-2.1-1.07-1.9l-7.16,35.38c-3.11-2.47-6.66-4.56-10.15-6.4-2.12-1.12-5.15-3.11-7.54-3,10.75,7.75,18.88,15.69,22.22,28.99,1.5,5.97,1.09,10.7,1.93,16.15.89,5.84,11.21,4.58,15.76,5.7.88-4.97-2.61-6.4-4.64-10.03-.9-1.6-1.21-3.36-2-4.79-4.5-8.12-10.06-15.81-13.68-24.35,6.2,5.05,17.75,34.03,23.35,36.54,3.83,1.72,6.14-7.9,7.62-10.5.78-1.38,2.85-.5,2.16-3.77-.66-3.18-12.1-9.79-15.06-13.61-2-2.59-9.51-16.84-9.09-19.51l1.49-.77-4.46-15.98c-.44-1.12,1.26-1.02,1.33-1.17Z"/>
</svg>