<?xml version="1.0" encoding="UTF-8"?>
<svg id="Capa_1" data-name="Capa 1" xmlns="http://www.w3.org/2000/svg" viewBox="0 0 500 517">
  <path d="M0,225l6.73-11.61-2.74-18.84c3.72-7.33,10.8-14.33,9.91-22.94-.41-3.97-2.61-5.92-1.26-10.43,2.05-6.83,14.32-8.97,15.83-16.05.35-1.63-1.45-11.67-1.92-14.18-1.1-5.93-6.34-10.5,3.17-12.72,3.28-.76,8.33.52,10.71-3.29.91-1.45.65-3.65,1.68-5.32,4.44-7.15,3.78-6.57,6.68-14.32,5.78-15.43,12.78-6.88,21.58-11.42,7.1-3.67,8.6-13.87,17.89-17.11,4.97-1.73,6.94.58,11.22.3,9.57-.62,5.44-7.58,9.2-13.8,1.19-1.96,5.38-5.81,6.93-8.15,4.78-2.74,8.67.92,11.39-.57,1.28-.7,1.84-2.96,3.09-3.96,1.81-1.45,4.44-2.42,5.92-4.08s2.39-5.56,3.24-6.26c1.27-1.03,7.51-1.85,10.1-3.4,2.24-1.33,4.39-5.07,6.35-5.65,3.09-.92,9.2.76,11.34-.66,1.85-1.24,2.06-10.84,8.67-12.33,4.33-.97,10.01.23,14.67-.33,5.31-.63,10.22-4.15,15.2-4.8,10.81-1.42,20.47,1.52,30.01,1.83,6.06.2,10.71-2.51,17.68.31,1.27.52,2.1,2.12,3.45,2.55,6.78,2.18,12.56-2.12,17.47,5.54,5.23,8.15,6.36,26.56,5.8,36.18-.64,10.95-4.69,23.43-5.03,33.97-.4,12.42,3.99,7.75,6.55-.45,6.58-21.09,8.21-55.29,27.98-69.02,8.04-5.58,27.17-4.88,36.99-8.47,1.58.11,3.16.33,4.68.8,4.07,1.24,18.42,12.34,22.32,15.7,10.17,8.77,17.22,29.37,24.72,41.28,3.86,6.13,7.21,5.97,9.84,9.16,2.82,3.42,3.07,10.27,7.42,14.58,2.57,2.54,5.73,2.92,8.06,4.94,1.35,1.18,1.86,3.16,3.52,4.48,3.29,2.62,8.48,2.78,12.01,5.99,3,2.73,7.86,7.15,10.6,9.9,5.98,6.01,7.51,15.53,18.19,17.8l.29,10.71,8.66,3.33c-1.3,8.44,4.56,12.8,7.41,19.09,5.54,12.21,6.78,27.82,5.78,41.19-.88,11.79-6.61,17.92-.54,29.57,1.49,2.85,5.27,6.14,6.1,8.9,1.81,6.01-2.96,15.23-4.26,21.82-1.07,5.39.8,7.71-2.84,13.16-21.59,32.34-62.65,7.38-89.44-2.42-38.11-13.94-91.74-37.01-129.32-12.34-5.37,3.52-15.87,11.95-18.16,17.84-9.03,23.22-5.94,52.04-3.51,76.48,4.22,42.46,10.47,89.85,18.26,131.74,1.15,6.17,5.49,17.33,5.26,22.72-.2,4.44-6.47,3.17-9.06,1.08-3.5-2.82-2.87-15.41-3.6-20.4-6.5-44.46-14.26-89.43-18.86-134.14-5.4-52.46,4.75-93.4-54.03-114.97-39.48-14.49-55.8.19-90.74,13.23-9.69,3.62-48.68,19.33-55.75,19.34-4.4,0-14.74-1.33-18.01-4.07-1.48-1.24-2.22-3.58-3.94-5.05-8.31-7.13-11.53-5.97-8.96-19.96l-8.59-15v-7Z"/>
</svg>