<?xml version="1.0" encoding="UTF-8"?>
<svg id="Capa_1" data-name="Capa 1" xmlns="http://www.w3.org/2000/svg" viewBox="0 0 500 517">
  <path d="M269.51,289.19c-2.43-.66-1.27,1.29-2.87,2.05-11.45,5.42-37.42,4.22-49.78,1.27-5.97-1.43-19.88-5.36-25.09-7.8-.77-.36-1.87-.19-2.2-1.39-1.69-4.88,11.57-9.43,15.21-10.41,15.73-4.23,25.99-1.98,41.26.19,7.51,1.06,15.01-1.57,20.29,6.38l3.16,7.04-1.77-28.44-6.62,3.6c-19.52,6.17-39.37-2.09-57.89-4.41-3.91-.49-8.79.57-12.36-.08-6.92-1.26,3.07-8.47,5.47-9.63,11.21-5.4,39.32-6.43,52.29-6.44,6.1,0,11.13,2.76,15.14,7.16.39.43,4.49,7.84,3.91,4.09-1.25-8.17-3.03-16.37-4.39-24.51-12.97,6.98-27.22,5.82-40.69,1.14-14.38-5-16.03-5.53-31.5-7.61-21.93-2.95.14-14.04,10.43-14.85,8.88-.7,41.29,3.98,50.03,6.83,5.14,1.67,9.66,5.11,9.96,10.93,1.57.21.88-2.02.77-2.99-.66-6.11-3.63-18.72-5.66-24.56-.45-1.29-.49-2.68-1.79-3.53-8.52,9.28-24.47,5.37-34.83,1.03-5.83-2.44-10.62-6.35-15.95-8.94-3.88-1.89-23.81-6.64-19.74-13.31.88-1.44,20.29-4.44,23.16-4.34,6.24.22,30.95,6.71,36.7,9.53,5.36,2.63,6.72,5.31,10.2,9.79-.88-3.81-6.34-24.73-8.45-25.77-1.77.14-1.47,1.61-3.49,2.68-11.71,6.2-35.93-2.63-48.3-6-6.61-1.8-15.31-1.13-20.47-6.89-.12-1.49,3.45-4.03,4.75-4.87,13.32-8.63,51.51-7.23,62.66,4.81l5.29,7.59c-3.25-6.34-7.61-27.89-11.95-32.03-.72-.69-1.1-1.17-2.2-.78-.11,1.78-4.65,4.03-6.38,4.73-19.66,7.93-35.29,1.48-53.16-7.1-3.91-1.88-17.63-10.54-10.1-14.39,9.17-4.69,26.1-5.33,36.28-4.68,13.52.87,29.46,2.41,33.35,17.34.36,1.39-1.1,2.71,1.72,2.25-1.21-6.93-3.19-13.99-5.59-20.62-.97-2.69-3.78-10.88-5.17-12.6s-13.75-4.63-17.26-5.85c-4.54-1.58-10.66-3.34-14.66-4.89-11.63-4.49-22.34-11.47-34.65-14.24,14.12-4.7,29.13,4.87,42.67,8.44l-12.44-11.99c-5.66-9.75-13.72-18.24-21.56-26.45-2.19-4.92,2.04-4.44,5.77-3.98,12.81,1.57,35.71,17.25,43.7,27.4,5.14,6.53,11.72,18.79,7.77,26.79l5.19,11.35c.67-13.38,5.9-29.22,13.48-40.29,2.07-3.02,15.74-19.23,19.41-15.7-.14,3.02.35,6.12-.21,9.12-.45,2.4-3.11,5.5-3.34,7.4-.25,2.06,1.04,4.05.96,6.14-.63,16.1-7.48,28.9-18.28,40.46-2.63,2.82-4.76,2.85-7.48,5-.53,1.56,3.7,18.19,4.79,19.88.28.42,1.15,1.16,1.33.88-.11-1.82.02-3.59.41-5.38,2.89-13.39,18.74-43.16,33.14-45.96,5.84-1.13,6.81-.11,6.46,5.55-.42,6.68-3.79,19.5-5.78,26.23-4.07,13.75-12.54,31.9-27.98,34.69l3.55,15.98c2.34.43,1.38-.4,1.85-1.28,6.83-12.74,12.88-24.58,24.36-34.28,6.34-5.36,17.69-12.58,26.1-9.64,2.11,8.72-3.17,15.01-5.69,22.05-1.78,4.98-2.88,11.58-5.56,16.66-4.1,7.76-19.95,23.1-28.61,24.81-1.89.37-4.05-1.06-4.94.29l3.16,19.6c5.23-5.76,9.16-13.02,14.24-19.08,2.87-3.43,8.35-9.47,11.6-12.37,3.04-2.7,19.62-15.63,22.37-16.76,8.28-3.39,8.71,4.02,7.72,10.38-1.36,8.7-11.73,28.72-16.99,36.34-1.83,2.65-4.71,4.65-6.07,7.7.73.67,5.84-4.01,7.21-4.78,7.31-4.12,13.43-5.6,21.6-2.43,1.02.72.99,5.28.59,6.76-.87,3.16-6.09,13.63-7.9,17.07-.84,1.6-8.42,11.64-7.27,12.72,5.57-.55,23.1-9.04,27.27-5.94,4.55,3.38-1.13,12.36-3.43,16.01-2.73,4.33-6.92,7.38-9.61,10.84-4.33,5.58-7.91,11.87-12.46,17.3,5.1-.62,33.1-4.76,35.17-1.83.9,1.79.37,3.4-.31,5.15-4.19,10.85-19.6,14.56-27.3,21.58-4.84,4.41-7.69,12.17-13.77,15.56,10.48-1.42,19.02-2.68,29.52-.2,18.03,4.25-4.01,10.53-9.42,13.2-13.28,6.54-20.5,19.73-34,25.55-5.68,2.45-14.07,4.49-19.47.97l-1.74.93-7.12,23.98c11.71-17.11,32.18-24.62,51.96-28.03.98-.17,3.01-1.03,3.59.04-7.78,6.77-16.28,12.71-24.01,19.55-9.85,8.72-12.31,15.4-26.64,19.58-2.33.68-4.57.04-6.51.6-3.52,1-8.09,19.08-10.39,22.93l12.74-9.03c7.84-4.01,16.6-6.68,25.48-6.08.07,1.82.13,3.6-.41,5.38-1.97,6.44-24.22,25.35-30.7,27.95-2.8,1.13-6.53,2.3-9.28.38-2.01-1.4-.33-4.07-3.16-3.49,1.89,4.09-.16,2.98-.8,4.27-5.92,11.86-13.13,26.51-18.03,38.68-1.7,4.23-3.78,8.24-3.51,12.94l-7,1.88c-.8-4.97,3.56-7.48,5.5-10.93,2.86-5.07,20.1-40.76,19.37-43.68l-1.99-1.21c-4.96,1.83-10.65.19-15.09-2.18-2.23-1.19-20.46-13.31-21.18-14.38s-1.07-1.81-.83-3.16c10.72-3.79,34.53-.21,37.8,12.41.39,1.51-.21,8.14,1.74,7.13,2.84-4.06,14.22-37.38,12.89-39.1-4.33,4.69-13.07,4.16-19.09,3.54-9.38-.95-16.88-8.04-24.74-12.59-5.74-3.32-14.48-4.44-16.54-11.75.55-2.41,20.27-6.75,23.49-6.75,7.32,0,30.16,7.82,34.83,13.6,1.06,1.31,2.72,5.7,2.91,7.39.29,2.53-2.25,6.36.91,5.66l8.89-33.77c-3.32,3.22-8.38,4.09-12.89,4.43-15.28,1.15-24.21-1.27-37.1-7.35-6.63-3.13-13.13-3.5-14.76-12.52,5.94-6.44,15.97-7.25,24.28-7.71,11.15-.62,35.36-.37,40.39,12.12l1.86,7.46,4.44-29.33c-18.62,9.2-34.65-6.66-52.98-9.67-3.87-.64-7.07.27-11.39-1.05-6.16-1.88-5.26-5.14.06-7.83,13.95-7.05,33.83-1.61,48.68.87,7.38,1.23,14.08,4.46,15.66,12.35.9.38,1.77-2.07,1.77-2.22v-26.22ZM278.39,218.07c-.53-3.07-13.42-.62-13.84-.03l2.74,14.26c2.39-5.23,6.39-11.07,11.1-14.23ZM270.41,330.07c4.1-1.84,5.52-4.56,6.99-8.62l-3.89-3.7c-2.77.03-2.46,9.9-3.1,12.32ZM275.53,252.95c-.46-.65-4.38-2.72-5-.52-1.05,3.76.18,10.57.77,14.53l4.94-8.84c.23-.95-.26-4.53-.71-5.17ZM273.07,282.97l-.88,15.11c2.86-1.68,7.93-8.69,7.07-11.89l-6.19-3.22Z"/>
</svg>