<?xml version="1.0" encoding="UTF-8"?>
<svg id="Capa_1" data-name="Capa 1" xmlns="http://www.w3.org/2000/svg" viewBox="0 0 500 517">
  <path d="M443.36,207.87c-3.07-1.06-5.99-2.65-8.95-3.86-4.99-2.05-9.09-3.07-14.46-4.44-1.47-.36-2.87.35-4.08-.95-.39-.41.11-1.34-.8-1.91-2.32-1.43-7.52-1.28-10.27-2.28l1.1-.57c1.07-1.26-8.98-1.61-9.69-2.24l-.87,1.13-1.67-1.67,1.1-1.65c-2.49-1.29-6.27.03-8.51-.55-.61-.16-.58-1.45-1.24-1.61-1.58-.39-5.14,2.14-7.17-.03l-9.2,1.07,1.1-1.39c-1.12-1.61-2.65-.16-4.18-.24-6-.33-10.76-.46-16.65-1.2-2.03-.25-4.08.8-5.55.6-.91-.14-1.56-1.09-2.82-1.17-4.59-.32-10.08.54-15.06-1.02-.68-.22-1.47-.05-1.91-.9.36-2.99,3.69-3.42,5.07-6.08.43-.84.05-1.5.46-2.24.98-1.8,3.45-3.23,4.81-4.73l-.87-2.22c.61.8,4.74-2.65,4.92-2.9.2-.33-.54-1.29.11-2.3.77-1.21,3.15-1.81,3.62-2.6.33-.58-.33-1.37-.22-1.58.25-.46,4.65-2.92,5.51-4.25.63-.99-.06-1.76,1.04-3.34,1.99-2.79,6.54-4.33,7.86-6.1.46-.61-.06-1.42.24-1.94.76-1.24,2.8-2.65,3.42-3.55.46-.68.6-2.47.77-2.6.19-.14,2.77.82,3.86-1.95.58-1.5-1.89-.22-1.67-1.37,2.38.5,1.42-1.48,2.52-3.32.8-1.34,3.32-2.62,3.51-2.91.2-.32-.47-.99.03-1.86.87-1.5,6.13-4.16,5.06-5.81l-1.67-.55c3.29-.43,5.39-4.44,7.48-6.71,1.04-1.12,4.63-2.51,3.39-4.44-.6-.91-3.97-1.62-4.76-2.47-1.61-1.75.39-2.79.85-4.18.25-.72-.21-1.45.32-2.41.93-1.76,3.53-2.28,1.87-4.82l4.24-6.9-1.2-.66c2.51-5.07,2.32-10.73,5.59-15.52-.33-.88-1.86,1.26-1.62-.5.43-3.07,5.04-7.86,5.45-9.61.2-.87-.61-1.92-.41-3.1.19-1.07,1.76-2.65,2.3-3.92.35-.87-.02-1.75.28-2.43.61-1.36,1.99-3.12,2.9-4.35l-1.1-.82c2.96-.77,4.33-6.7,3.88-9.45-1.21-1.07-11.05,5.39-12.81,6.35-7.67,4.14-14.86,7.91-22.25,12.79-2.27,1.5-4.33,2.8-6.6,3.94-1.73.87-2.84,3.91-6.16,2.49.85-1.58-.06-3.5-1.45-4.43l-1.88,1.09c-.41-3.12-3.84,2.77-3.91,4.44l-1.1-1.1c-.55,1.95-2.11,3.75-3.62,5.01-.46.39-1.28.14-1.95.77-1.89,1.7-2.52,4.29-5.58,6.15-1.76,1.09-3.94.58-3.88,1.97h-1.1l-.27-1.65c-1.56.41-1.78,2.21-2.13,2.57-.9.96-6.68,5.99-7.66,6.6-1.28.8-2.25.16-3.03.77-.38.3-5.23,7.28-5.53,7.88-.33.66.08,1.94-.3,2.74l-1.39-2.21-6.41,8.34-.55-1.67c-3.53,1.76-3.45,7.31-5.72,9.85-1.32,1.47-4.1,1.01-4.9,2.05-.69.9-.27,2.21-.79,3.1-.63,1.07-4.02,3.04-3.61,5.58l-1.67-.85c-.44.66-.98,1.29-1.34,2.02-.74,1.45-1.32,3.5-2.52,5.11-.77,1.02-2.57,1.78-3.09,3.73l-1.1-1.06c-1.15.03-2.41,5.33-2.87,6.07-.68,1.1-3.99,3.39-5.22,4.71-1.15,1.26-1.94,2.84-3.32,3.92l2.22,1.39-1.67,2.21c-.79.06-.87-2.03-.95-2.65-1.13-8.51-4.59-15.77-5.12-23.26-.2-3.04-.71-6.1-.9-8.82-.14-2.16.8-5.69.68-7.75-.06-1.37-1.23-1.26-1.45-1.88-1.51-4.1.19-10.3-.6-14.31-.25-1.18-1.26-1.48-1.54-2.36-.2-.6.38-11.52-1.23-10.16l-.55,1.12c-.54-1.69.57-4.44.38-5.75-.28-1.86-1.76-5.66-2.05-6.87-.77-3.23,1.1-6.15-.39-8.65-1.2-2.02,1.37-5.67,1.48-7.41.09-1.51-.66-3.92-.57-6.11.16-3.29,1.58-6.52,1.15-10.01-.16-1.24-2.49-6.74-3.91-5.26.2,7.48-5.86,12.24-9.67,17.85-2.95,4.3-5.89,9.28-8.57,13.68-.44.72-1.04,3.91-1.23,4.07l-1.1-.55c-.16,1.2-.46,3.06-1.09,4.05-.33.52-1.21.66-1.61,1.29-.68,1.1-1.31,3.37-2.05,4.1-1.15,1.15-2.77.28-3.53,1.43-.91,1.42-1.18,3.99-2.11,5.67-.47.84-1.47.87-1.75,1.62-1.21,3.39-.9,6.13-2.9,10.34-2.32,4.88-2.65,8.84-4.98,13.6-1.36,2.77-.14,6.93-.52,9.94-.14,1.06-1.07.52-1.2,1.59-.58,4.52.24,10.32,1.15,14.78l-1.1-.57,2.77,9.77-1.06.96,4.4,11.25-1.12.54c.25,1.1,1.81,2.8,1.99,3.59.16.65-.76,1.12-.76,1.88.03,1.64,2.13,4.63,1.56,7.06h-2.22l1.1-1.1c-2.16-.91-3.67-3.26-5.53-4.77-.54-.43-4.36-3.09-4.66-3.17-1.42-.41-1.7.74-3.15.47-2.65-.49-5.17-3.4-7.41-4.33-1.47-.61-5.97-2.85-6.48-3.01-1.51-.44-2.35.38-3.51.24-2.03-.25-6.08-3.07-7.83-2.69-.39.08-.33,1.1-.71,1.17-2.1.28-6.89-2.19-8.89-2.25-1.15-.05-2.1,1.04-3.81,1.17-2.58.17-4.41-1.26-6.16-1.21-1.29.02-.76,1.62-2.19,1.75-1.37.11-4.54-.68-6.71-.61-4.41.11-12.05,1.2-14.72,5.03l2.22-1.1.57,1.65-2.22,1.12c2.82.85,7.63,2.41,10.12,3.92.96.58,10.68,9.06,11.06,9.69.44.77-.2,1.47.49,2.21,2.06,2.25,7.53,4.93,10.29,7.55,2.52,2.4,4.27,3.8,4.7,7.55l-1.07.5c.88,2.17,2.98,2.51,4.6,3.61,5.88,4,14.98,7.44,20.39,12.01,6.84,5.78,14.09,9.94,20.89,15.82,1.72,1.47,3.55,4.52,5.75,5.92,3.18,2.02,17.99,8.16,17.88.79-4.27-.98-1.45-1.47-1.09-2.08,1.13-1.89-.54-7.5.55-10.19l1.65,8.89c-.35-12.51.84-25.05-.58-37.52.09-1.48-.03-2.98.03-4.47.03-.68-.43-2.06.55-1.94-.22,7.37,1.2,14.59,1.37,21.96.16,7.01.06,20.83-2.22,26.98-.52,1.37-.05,1.58-2.85,3.42l-4.82,8.98c-.03.06-.06.11-.09.17-14.35,25.7-29.09,51.29-40.7,78.37-16.69,38.97-32.7,82.34-43.9,123.22-3.48,12.72-5.69,29.21-10.3,41.16-1.56,4.02-4.47,4.98-6.13,8.87,5.55,4.1,9.63.33,11.28-5.39.84-2.87.54-5.78,1.01-8.45,3.47-19.18,9.64-39.93,15.35-58.63,16.18-53.01,37.74-106.78,64.38-155.3,3.69-6.7,7.66-13.24,11.31-19.95.17-.32.35-.63.5-.96.24-.43.47-.9.72-1.39,1.12-2.21,2.44-4.7,3.42-5.23l2.24,11.68,1.1-.55c.03,3.47,2.63,5.51,4.19,8.34,1.73,3.17,1.99,4,4.08,7.04,1.84,2.69,3.66,5.58,5.09,8.54l1.39-1.67c1.01.55.2,1.58.55,2.21.47.85,1.81,1.17,2.51,1.95,1.83,2.13,2.6,4.6,4.73,6.4l.28-1.1h1.1c.08,2.66,4.36,4.43,5.92,6.3.95,1.12,1.15,2.62,2.14,3.7l1.39-1.1c.46,1.75,2.8,3.09,3.58,4.47,1.53,2.73,2.74,11.14,6.71,11.16,3.21,0,5.56-7.03,5.75-9.75l-2.69-2.54c1.5.06,1.4,1.24,3.09.61,2.99-1.09-3.07-1.48-1.97-3.95l2.51,1.69,2.51-1.13-1.13,1.95,1.13.55-3.34,1.94,3.34.57c-.98,1.81.91,1.88,1.12,3.32l1.65-1.1c.88,2.79,4.27,4.29,6.41,6.11l1.1-1.67c.58,1.83,2.43,3.42,4.21,4.14.76.3,1.7,0,2.85.44,2.32.9,2.74,3.51,5.45,3.21l.55-1.67c-.14,1.51,1.64,1.17,2.76,1.95.76.54,2.76,2.84,2.95,2.92.47.22,1.18-.41,2.27.17,4.47,2.36,15.68,14.29,19.27,18.59,1.24,1.5,4.19,6.95,5.45,1.54.6-2.6-.93-12.94-1.8-15.76-1.31-4.24-4.14-9.5-5.18-13.74-1.06-4.27-2.71-6-4.29-10.16-.74-1.92-.61-3.86-1.26-5.4-.68-1.61-5.81-6.02-7.39-8.19-.63-.87-.54-2.02-1.34-3.12-1.36-1.88-6.29-4.71-7.8-6.65-3.25-4.16-6.03-7.11-9.75-10.82-.9-.9-1.83-1.99-2.77-2.79-1.47-1.24-5.01-2.76-5.75-3.58-.57-.61-.41-.95-.38-1.7l11.12,1.67.55-2.77.36,2.25c1.88.03,3.77,1.42,5.5,1.62,1.7.19.28-2.3,1.1-2.22.5.05,0,.9.66,1.1.96.3,7,1.58,7.82,1.59,1.26.03.98-1.51,1.61-1.62,1.29-.22,6.07,1.42,7.71,1.2,1.36-.17,1.15-1.56,1.78-1.72,2.93-.74,8.79.54,12.1.05l.61-1.75,13.03-1.07-.55-1.67c1.99-.24,3.95-.72,5.92-1.06,1.15-.2,2.51-.65,2.66-.68,2.03-.2,3.86,1.06,5.88.06l-.57-1.1c2.87-.44,14.62.44,15.88-2.21l-1.87-4.76c1.94-3.61,7.42-2.39,9.55-3.59.63-.35.16-1.29.71-1.73,1.84-1.47,6.55-.6,7.58-3.97l7.66-2.11-1.12-1.09c1.86-1.51,4.43-1.26,6.1-1.99,4.59-1.97,7.88-4.98,13.36-6.65,2.74-.84,9.96-.17,5.22-4.63ZM264.69,224.67c-5.18,1.09-10.89,1.78-16.2,2.02l7.03-1.59,10.76-1.18c.14.88-.98.61-1.59.76ZM283.54,221.69l.55,1.65c-3.78-2.11-8.24.33-12.48-.03l-.32,1.72c-1.39-1.2-2.63-1.31-4.44-1.13l20.58-3.32c.54,2.22-3.28.6-3.89,1.12ZM303.55,220.57l.57,1.1c-.79.35-1.64-.55-1.95-.55h-11.96c-.13-.98,1.26-.52,1.94-.55,4.43-.19,8.95-.52,13.35-.57,2.49-.03-1.56,1.17-1.94.57ZM304.67,151.34l5.56.82-5.83.02c-3.34.65-11.75,14.83-15.3,17.51l1.1.84c-.93-.05-1.54.24-2.25.8-3.42,2.73-6.16,8.11-8.67,11.44-1.51,1.99-3.06,3.14-4.68,4.68-2.02,1.91-3.84,5.06-5.8,7.01-.6.58-.96,1.31-1.95,1.09l45.62-55.32c3.01-4.55,7.94-8.29,11.63-12.42,4.87-5.47,9-11.61,14.23-16.8l-.57,1.67c-4.05,3.84-7.03,9.23-10.59,13.33-.57.65-1.34.88-1.73,1.32-7.03,7.94-14.87,15.05-20.77,24.01ZM359.74,214.44l10.57-1.42,1.65.87-12.23.55ZM386.43,212.79c-2.85.09-5.77-.14-8.62,0-.79.03-3.99,1.62-4.73,0,4.14-.52,8.57-.24,12.64-.99,1.09-.2.68.05.71.99Z"/>
  <path d="M235.05,238.6v.06c-.24.44-.47.88-.72,1.32.24-.43.47-.9.72-1.39Z"/>
</svg>