<?xml version="1.0" encoding="UTF-8"?>
<svg id="Capa_1" data-name="Capa 1" xmlns="http://www.w3.org/2000/svg" viewBox="0 0 500 517">
  <path d="M340.87,15.27c.51.44,2.73,11.83,2.78,13.19.03.78-.19,3.73-.35,4.39-.06.27-.68.22-.69.43-.03.59.41,1.5.31,2.68-.15,1.88-1.61,9.44-2.37,10.93-.51,1.01-3.36,3.41-3.68,4.45-.07.24.33.73.12,1.3-.35.95-1.55,2.11-1.07,3.09l.86-.68c0,1.17-.62,2.75-1.54,1.38l-1.24,3.15c-.92.54-.84,1.7-.99,2.68l2.74-4.8-.34,2.06c1.81-.2,3.53.29,5.32.37,13.25.58,26.54,2.47,39.65,5.29,2.6.56,13.6,2.95,15.08,4.14,1.18.95.79,2.31,3.07.99,1.29-.75,2.05-3,3.91-2.56,2.26,2.12.53,4.68,1,6.97s2.71,5.66,3.53,7.79c.74,1.93,2.21,7.74,2.55,9.82.34,2.07-.9,1.56-1.01,2.03l.71,1.7-.7.4c-.27,1.34.74.94.92,2.29s-.66,4.17-.61,4.49.85.28,1.01.77c.7,2.12-.87,5.93,2.1,6.66l-1.02.68c-.15.61.58.22.68.34.29.36-.66,1.05-.7,1.56-.07.75.72,1.19.66,1.64-.07.49-1.33,1.37-.98,2.29l1.2-.68.48.5c-.73,1.01.33,1.3.38,2.24l-1.71-.34,1.37,1.88c-.34,1.26-2.02-.61-2.05-.76-.09-.43.13-1.23-.04-1.44-.07-.09-1.55-.23-2.21-.71-.88-.63-1.24-2.63-2.57-1.89l.17,1.54c-1.48-.02-3.2-1.09-2.92-2.75-2.29.48-3.02,1.18-3.67,3.37-.93,3.13-1.4,3.17-3.19,5.71-.92,1.3-1.53,2.13-1.62,3.81,1.02.9,2.25.33,2.83,1.87l.49-.03c-.13-.99.79-.77,1.05-.13.34.83-.88.34-1.3.58-.68.4-1.68,2.72-1.68,3.61,0,2.26,3.91,4.2,3.6,6.04-.08.49-2.21,3.62-2.56,4.51l.57,1.71-.81.49-1.08-.63c-.61,1.55-2.74,1.62-2.91,3.27-.07.62.44,1.64.32,1.81-.18.25-2.16,1.15-2.34,1.98,1.14,1.82,1.7,2.98-.72,3.9-.11-1.12,1.49-2.09.17-3.08l-1.22,2.88,1.57,1.16c.9-1.13,1.97-1.26,3.18-1.87.33-.17.38-.72.66-.79,2.34-.54,2.59,1.06,1.47,2.73l3.43-1.03c-.22,2.1,1.81,4.99,3.43,2.41l.52,1.37.52-1.71.87.34c.76,1.17-1.36,2.46-.87,3.1l1.04-.19c.08,1.51,1.86,1.28,1.71,2.93l.51-.68.52.86c0,.1-1.44.99-1.54,1.19-.18.35.26.92.11,1.48-.19.75-1.43,2.1-2.35,1.63,1.17,2.25-1.24,4.01-2.34,5.72-.56.86-1.92,4.24-2.98,4.15-1.4-1.21-2.79-2.55-4.68-2.78-.31-.04-1.31-.38-1.31.29,0,.58,1.19.15,1.55.47.45.39.46,1.18.84,1.61,1.12,1.27,2.21,2.05,3.41,2.76,1.02.61,1.14,2.76,2.39,2.25.66.74-.3,1.41-.3,1.5,0,.36,1.22.5,1.53.86.41.48.28,1.39.51,1.83.19.36.75.16.91.33,1.41,1.46,1.52,3.87,3.33,5.62.21.21.87.12,1.09.44.68.98.49,4.14.66,4.47.47.95,2.61.85,2.95,2.92.17,1.07-.91.05-1.5.2-1.78.45.57,3.09,2.18.32.08,1.67,2.9,1.99,2.35,3.53s-3.86,1.46-3.37-.56l-.85-.22c-.73.34-.14,2.33-1.89,2.06.52-1.94-.98-1.94-2.4-2.75-.21-1.13,1.52-1.11,1.89-1.7.57-.93.37-4.89-1.57-3.63-.57,1.81-.01,2.55-1.36,4.13-.48.57-4.44,3.38-5.03,3.55-2.23.65,1.15-2.32,1.26-2.68l-1.51.05c-.68.18.02,1.73-1.58,1.32.11-.87.8-1.73-.17-2.39l-2.21,2.91c-.04,1.13,1.9,1.79,1.35,2.23-.13.11-1.02.13-1.07-.39l-1.49-1.67-2.22,1.75.33.99c-2.04-.31-2.39,1.54-3.95,2.4-.77-.55.61-1.99.52-2.05l-1.35.02c-.79,1.98.53,2.68.85,4.45-.85.48-2.13.63-2.91,1.22-.71.54-.77,1.56-1.74,1.51-.49-1.52,2.96-3.01,3.09-3.61l-.81-.81c-1.23.25-2.12,2.12-2.98,2.52-.54.25-1.2.12-1.7.36-.78.38-1.43,2.4-2.06,3.09-.68.75-2.54,1.39-2.92,2.23-.47,1.05-.12,2.93-1.2,3.95-.28.2-.78-.52-1.53-.55-1.43-.05-5.6,2.55-3.27,3.63l.89-1.53,2.7.34.18-1.05c1.32-.18.26,1.76,1.59,2.31,1.77.73,2.87-1.42,3.79-1.55.71-.1,1.52.96,2.29.89l4.68-3.7c-.27,2.2-.56,5.14,2.59,4.84.38-.04,2.78-1.69,1.69-2.44l-2.56.35c.24-1.94,2.71-.94,3.59-1.03.55-.05,1.05-.79,1.2-.69.07.05.12,1.22.86,1.03.75-.99,1.29-2.09,2.74-2.06,1.02.65-.47,1.13-.16,2.06l3.58.35c1.83-1.14,2.36-2.4,4.64-2.95,1.89-.45,4.46-.89,6.63-1.6.49-.16.73-.74,1.17-.88,2.41-.76,4.73,1.66,6.88.7.46-.2.84-.84,1.1-.93.65-.22,1.26.74,1.56-.53l.34.67c-1.2,1.25-.35,2.9,1.02,3.52.43.19,2.33.54,1.91-.41h.33c.17.88.51,1.72.65,2.61,1.36,8.18,1.39,24.93.27,33.14-.27,1.98-2.26,11.14-3.41,12.2-2.05,1.89-12.88-.28-15.59-1.22-14.32-5.01-24.47-23.56-39.41-24.85-11.67-1.01-24.49.21-36.02,1.52-1.57.18-3.18.8-4.63.62-.21,1.46,2.4.37,3.22.38.76,0,1.81.43,2.61.48-3.17,1.93-6.75,3.86-10.2,5.24-13.2,5.27-26.11,7.87-39.96,10.48-5.97,1.13-7.61,2.27-12.73,4.77-.75.37-1.71.08-2.33.76-.19.2-1.6,4.27-1.86,5.01-1.03,3.01-3.88,11.55-3.94,14.28-.02.93.72,1.47.67,2.33s-1.3,2.58-1.56,3.96c-.24,1.23-.44,3.34-.51,4.64-1.27,21.94-1.11,45.01-.69,66.92.12,6.18-.46,13.98.34,19.94.16,1.17,1.03,1.32,1.09,2.38.07,1.3-1.06,1.86-1.1,3.43-.02.97.37,1.81.39,2.73.6,30.93,1.04,61.82,1.34,92.68.05,5.38.71,10.97.37,16.47-.17,2.78-.18,6.13-3.87,5.9-2.65-.16-2.2-1.84-2.71-2.26s-2.15.5-2.95-2.03c-1.27-4-.32-14.96-.41-19.83-.48-24.24-1.24-48.58-1.74-72.72-.14-6.51.5-15.02-.36-21.26-.17-1.24-1.29-2.54-1.32-3.11-.04-.8.89-2.02,1.01-3.09.42-3.49-.31-7.19-.37-10.63-.42-24.7-.45-48.43.34-73.12.3-9.37,1.71-15.86-1.18-25.21-.32-1.05-2.21-4.83-1.85-5.43.14-.24,1.15-.14,1.33-1.28.27-1.63-1.35-3.03-.35-4.61-7.31,1.47-13.72,5.7-21.15,6.81-4.53.68-9.16.38-13.68.74-4.44.35-8.92,1.19-13.37,1.38-11.23.5-21.58-.73-32.86,1.12-5.98.98-12.53,2.97-18.62,3.01-16.72.11-31.51-9.32-48.04-10.3-9.84,5.27-17.73,15.2-28.44,18.93-5.35,1.86-10.98,1.04-16.44,2.43-5.33,1.35-9.57,4.92-15.54,5.39-2.17.17-9.87.07-10.11-2.93l2.4-19.37.68,1.02c.21-1.48,2.07-.84,2.06.69l-2.39-.34-.35,2.05,1.03.18-1.37,1.2c1.85.43,1.79-1.49,3.22-.66l2.61-1.57-2.36-.9-.04-1.33h1.72s-1.54-1.73-1.54-1.73l-.86,1.38-.34-1.37c-.62.46-1.09.87-1.73.12l.05-1.47.99-.02c.05-.76.16-1.13-.68-1.03l2.4-1.37c.52-.53-1.68-1.63-1.73-1.95-.24-1.63,1.2-5.1,1.72-6.62l-1.02.69c0-.16-.05-.35,0-.51.2-.55,1.1-2.23,1.71-1.55-.83-3.84,1.55-7.65,2.65-11.25,2.7-8.85,4.09-16,9.43-23.86,3.29-4.84,15.69-17.93,20.76-20.11.57-.24,1.29-.02,1.49-.18.36-.28.35-1.02.68-1.4.54-.64,1.72-1.04,2.42-1.7,2.95-2.81,3.28-4.99,7.75-5.63,8.41-1.21,12.54-2.69,20.46-4.94,19.63-5.58,28.82-3.69,47.96.62,3.23.73,6.81.92,9.98,1.69,7.27,1.76,18.74,5.98,25.82,8.84,12.3,4.96,23.57,13.16,31.58,23.69,4.85,6.38,11.45,13.78,17.38,19.32,3.12,2.91,7.13,5.39,10.31,8.22.91.81,2.72,3.42,3.59,3.48l.65-.19c3.02-4.12-1.84-5.13-4.09-7.56-.82-.89-1.46-2.25-2.22-3.27-.39-.52-1.96-1.77-2.04-2.09-.39-1.72,6.11-1.31,6.17-2.06-.22-.93-.78-1.87-.96-2.8-.94-4.87-1.97-10.41-3.79-15.09-1.48-3.82-3.51-6.48-5.9-9.57-.49-.63-2.7-.71-3.42-1.01-2.88-1.21-8.65-5.14-11.52-7.01-22.31-14.54-43.61-32.88-60.24-53.69-3.05-.92-6.25-1.54-9.42-1.9-12.61-1.42-27.07-.88-39.13,3.07-6.44,2.11-7.33,4.21-14.8,3.15-2.68-.38-3.37.15-5.26-2.29-1.9-2.44-4.09-10.88-4.39-14.07-.43-4.42-1.02-10.95.1-15.46.5-2,2.07-4.56,2.48-5.82,1.09-3.42,2.01-5.2,5.36-7.25.84-.51,1.43-.1,1.78-.2.21-.06.14-.54.4-.6,1.3-.29,4.99,1.2,6.37,1.8,3.18,1.39,6.74,4.25,9.62,5.47,1.89.8,1.57-.37,2.73-1.21,2.38-1.72,5.14-2.18,7.02-3.42.44-.29.81-1.89,1.81-1.61l-.69,1.02c.27.21,1.96-.64,2.38-.88.66-.39,1.37-1.42,1.46-1.46.31-.12,1.02.33,1.73.23,1.47-.2,2.05-2.06,3.66-2.04.36-.42-2.22-6.7-2.54-7.86-3.16-11.5-2.48-23.61,2.92-34.32.5-.37,2.58,2.51,3.06,2.93,1.15,1,1.84,1.79,3.54,1.46,2.55-.5,4.8-5.27,7.75-4.08.46-1.27,1.59-2.36,2.26-3.42,1.07-1.69.92-3,3.17-4.38,5.15-3.16,20.27-4.14,26.28-3.06,4.37.79,9.03,1.76,11.53,5.62.2.3,1.67,2.93,1.71,3.11.2.81-.72,2.01-.57,2.95.13.8,1.05,1.35,1.38,2.06.57,1.22.55,2.94,1.3,4.21l-1.03.84c-.04-.55-.6-1.48-1.2-1.37-.74.13-.12,1.28-.24,1.78s-.9,1.15-.83,1.82c.05.49,1.06,1.21,1.22,2.07.14.74-.16,3.35.06,3.57l1.01.21c-.08,1.36.45,2.52-1.06,3.08.99,2.54,1.04,5.8,1.4,8.56.32,2.42-.04,1.73-.25,3.83-.16,1.59.88,3.73-.8,4.76l1.03.72c0,2.43-2.95,4.38-3.35,6.24-.18.82-.67,3.63-.74,4.35-.07.78.66,1.59-.56,2.58-1.9,1.56-5.04-1.32-6.67-2.24-.88-.49-1.96-.58-2.73-1.04-.67-.4-1.15-1.38-1.76-1.67-.95-.46-2.51-.36-3.66-.81-.92-.36-2.21-2.09-2.68-2.05-.34.03-.57.98-1.66.94-4.82-.18-10.5-1.86-15.5-2.38-3.93-.41-10.28-1.15-14.06-1.07-.46,0-4.14.9-4.29,1.06-.03.03.31.5.24.79-.12.45-.72.68-.58,1.26,2.48.28,5.12,1.66,7.38.01,1.03,1.85.51,3.76,3.25,4.32.89.18,2.16-.26,3.19-.12.49.07.96.6,1.47.59,1.05,0,1.45-1.69,1.76-1.74.42-.06,1.13.38,1.68.39,1.2.01,2.31-.4,3.59-.02l-1.38.69c-.19,2.41,2.23,1.7,3.09,2.23.61.37.62,1.54,2.37,1.19.68-3.92,1.65-2.09,3.33,0l2.19-1c.69,2.96,2.78-.02,3.6,0,1.14.02,2.05,1.49,2.73,1.77s1.37-.15,2.15.2c.69.31,1.02,1.1,1.73,1.38,1.66.66,4.01.32,5.28.6.8.18.88,1.13,1.22,1.21.81.19,3.7-.51,2.69,1.38-.41.77-2.42.72-2.24,2.05,1.43-.37,1.43.71,2.15,1.14s1.92.45,2.31.75.23,1.06.91,1.49c.88.55,2.28.19,3.2.57.8.33,1.37,1.98,1.95,2.17.97.32,1.91-.15,3.32.45,1.93.82,2.65,2.52,3.75,3.63.3.31,1.14.41,1.65.92.6.6.61,1.43,1.21,1.88.27.21,2.56,1.2,3.26,1.56,2.4,1.22,4.15,2.12,6.84,3.16,1.44.56,3.55,2.57,4.29.46.93.61,1.98.61,3.08.68.69.04.53-.03.51-.67-1.76-.53-4.28-1.12-5.92-1.81-1.19-.5-2.01-2.14-3.69-1.28.04-.56,0-1.08-.32-1.57-.11-.17-2.76-2.77-2.93-2.89-.88-.62-1.89-.45-2.57-.88-.56-.35-1.26-1.96-1.91-2.55-.71-.65-1.78-.83-2.25-1.28-.34-.33-1.39-2.37-1.58-2.52-1.04-.85-1.97-.07-2.44-2.29-.5-2.42.12-1.78,1.31-2.98.36-.36.79-1.29.99-1.4.32-.17.98.3,1.5.15s.96-1.54,1.82-1.99c2.27-1.2,3.92-.77,6.15-.89.46-.03.88-.49,1.02-.48.33.02,1.28,2.96,3.25.13l-1.13-.51-.25-.86c.96-.59,2.6-2.23,3.8-1.39.41.29.39,1.68,1.25,1.88.76.18,1.45-1.12,2.48-.36l.37-.64c-.39,3.29,1.37,6.03,2.26,8.89.23.73,0,1.6.2,2.2.17.52.87.53,1.12.94.45.72.64,2.24,1.09,3.03,2.28,4.11,3.59,4.37,4.57,9.84.1.55.5,4.08.37,4.26-.14-.01-3.19-1.24-2.74-.18.9,1.37,2.53.95,3.78,1.37s2.33.81,3.56,1.21c1.44.47,2.81,1.16,4.32,1.37l-.68.34c.49,1.13,2.08.53,3.17.77,1.37.3,2.46,1.02,3.84,1.24l.19,1.2c.07.62,1.68.08,1.37-.81-2.11-.15-.88-3.3-2.74-3.44v1.72s-1.03,0-1.03,0l-.03-.99-.99-.21,1.03-1.37-.7-.69.66-.2c.06-.06-.34-.77-.33-1.18.05-1.53-.17-4.12-.46-5.67-.74-3.88-9.57-14.13-12.44-17.79-.37-.47-1.47-1.13-1.72-1.52s-.08-1.04-.42-1.47c-.69-.89-4.66-.86-2.1-3.57-.2-.16-2.52.96-2.06-.17.56-1.38,2.53-1.35,3.32-.23l.6.08.99-1.01,3.5,1.67c.27.31-1.28,1.36,0,2.06l.72-.71,2.19.37c.45-1.15-1.44-.3-1.02-1.19.12-.26,3.36-1.38,2.73-2.23-.04-.05-.51.04-.56-.07-.3-.67-.61-2.34-1.13-3.13-.22-.33-1.04-.53-1.04-.75,0-.11,1.15-1.21.68-2.05l.68-.18c.76,1.63,1.58,3.29,2.6,4.79.33.49.96.59,1.09.76.14.19-.4,1.83.77,1.66-.79.61-.34,1.28-.45,1.64-.02.07-.53-.04-.61.56-.54,4.28,1.1.85,3.3.91.28-1.59.18-3.86,1.57-4.97.66-.53,1.68-.54,2.32-1.45.4-.57,1.53-3.47,1.08-3.9l-4.98-1.06-2.22,1.75c.11-.88-.18-2.03,0-2.85.04-.18.91-.32.84-1.58-.18-3.63-.06-6.25.73-9.9.36-1.65,1.41-2.84,1.45-3.01.4-1.75.61-4.39.8-6.06.21-1.79,1.18-2.5,1.73-3.81.31-.75-.59-1.69,1.29-1.62l-.67-.83c.42-.75,1.09-1.57,1.49-2.29,1.31-2.4,5.35-11.69,6.89-13.02.33-.28,1-.23,1.14-.39.24-.27.28-3.42,1.77-4.84.44-.42,1.1-.3,1.52-.63,1.86-1.45,2.56-1.93,2.62-4.42,1.87.51,3.28.96,4.7-.78,1.09-1.34-.26-3.36,1.82-3.68.11.8,1.03,3.11,1.89,1.81,1.99,1.09-.07,2.03-.09,2.47-.02.29.52.71.55,1.09.04.45-1.27,1.53.05,2.36.93.59,1.6-.35,2.31-.45.44-.07.91.21,1.24.15.87-.14,1.65-.75,2.62-.57l-2,1.45-.39,3.01,1.02.17-1.73,1.38c-.25,1.32,1.17,1.1,1.93,1.51.26-.56,0-.82.83-.66.28.9-.7,1.85.17,2.39.52-.78,1.1-.43,1.89-.34l-.68-1.37c2.15.39,1.59-.57,2.25-1.37.31-.37,1.14-.28,1.39-1.03,1.05.05,3.51,1.84,4.44,1.06,1.58-1.32-1.38-2.77.5-3.3l-.69-.34,1.04-.17c.08-1.57-2.43-1.26-2.71-.1-.26,1.03,1.12,1.22.99,2.16-1.31-.16-2.37.54-3.63.04-.35-.14-.62.17-.49-.55.05-.26,1.35-3.36,1.48-3.5.39-.43,1.75-.61,1.9-.85.21-.35-.06-1.19.06-1.31.07-.07,1.04.06,1.46-.07,1.89-.57-.22-2.33-.09-2.83.09-.34,1.2-.49,1.03-1.21l.68.2c-.02,2.71,1.66,2.41,3.74,1.82l-.12-1.71-1.23-.49v-.86s.69.35.69.35l-.34-2.75,1.02.68-.34-2.06c-1.15-.23-.69,2.26-2.06,1.54.93-1.14.25-1.69.51-2.92l1.84-.56c.48-1.07-.32-2.59-.3-3.36,0-.23.63-.03.72-.69.11-.79-.13-1.77-.03-2.6-1.23-.28-.52,1.34-.69,2.06l-.69-1.37-1.02.68c-.38-1.47.44-1.23.99-1.92.24-.29.21-.9.47-1.1s1.24.2.94-.58c-.12-.31-1.04-.88-1.1-1.51-2.02,1.15-.35-3.31-2.58-2.2-1.35.67-2.08,2.46-2.16,3.88l-.68-.35c-.57.88.86.97.68,1.54-.36,1.13-1.27-.52-1.71-.16.27.13,1.14,4.22,0,3.08l-.69-4.12,1.03.19c.46-.36.43-.83.28-1.33-.59-2-1.74-.08-2.17.1-.57.25-.69-.47-.51-.68.04-.05.58-.09.85-.34,4.4-4.06,9.37-8.47,15.28-9.96.17.14-.56.65-.68.86-.57.96.79-.26.65.64-.21,1.36-.99,2.03-1.01,2.15-.09.55.35,1.13.26,1.61-.14.8-1.28.48.46,1.45.02,1.42-1.29,1.07-1.4,1.17-.15.14.56,1.78.58,2.29.07,2.08-.46,2.34.02,5.18.15.91-.84,1.37.77,1.97.18.75-1.07.71-1.05,1.04.09,1.31,2.21,2.91,1.39,4.28l1.37-.68c.03,1.28-1.19,2.86-2.57,2.75-.65-.41.26-2,.17-2.06-.21-.16-1.17.21-1.2-.69l-.86.69c.05-1.14.46-1.89-.13-2.98-.04-.08-1.8-.73.47-.79.17-1.17-1.23-2-1.32-2.27-.29-.86.23-1.94-.57-2.87-.34-.4-.33-.43-.69,0-.95,2.08.83,4.25,1.06,5.82.09.64-.28,1.2-.14,1.82.24.99,1.99,2.79,1.66,4.38l1.71-.34c.11,1.03-1.14,1.03-1.54,1.73-.53.92.62,2.14.85,2.92.69,2.39.8,5.58,2.76,7.19l-1.37.17.37,1.5c-1.34.43-.49,2.5.32,3.3-2.01-.65-4.16.49-1.39,1.57-1.01,1.79.75,3.87-.18,5.29-.38.58-1.31-.07-.45,1.79.11.24.52.24.62.54.3.84.25,2.02.71,2.82l-1.05.18c-.24,1.75,1.17,3.32,1.06,4.06-.02.12-1.08.43-.7,1.25-1.29-.23-.64-2.56-.72-2.69-.07-.12-.74-.21-1-.55-.57-.73-.72-1.86-1.7-2.25-.3,1.69,1.18,2.64,1.7,3.95,1.42,3.51-.35,4.83-1.92,7.68-3.1,5.63-5.45,12.24-8.64,17.78-2.69,4.68-7.84,7.26-11.06,11.6l.68.34c-.3.54-.84.19-1.21.5-.53.44-3.03,2.79-3.31,3.21-.31.46-.53.66.23.57,2.66-1.55,5.27-4.01,7.39-6.34.45-.5.56-1.29,1.04-1.71.37-.33,1.19-.4,1.31-.59.17-.27-.07-.87.13-1.22s3.89-2.64,4.56-3.17c8.17-6.52,17.97-10.7,25.63-17.52,2.82-2.51,7.38-7.07,9.72-9.92.64-.77,1.04-2.11,1.25-2.35.05-.06.53.23.82-.03,1.27-1.19,1.23-2.53,1.7-3.13.29-.38,1.03-.23,1.16-.38.21-.25-.12-1.03.1-1.27.13-.14.72-.04.97-.23.39-.3.24-.93.44-1.13.19-.18.79,0,.89-.1.2-.21-.06-1,.06-1.44.1-.36,2.14-1.96,1.36-2.82l.69.17c-.58-1.42-.08-2.06.86-3.11.27-.3,1.42-.31.68-.96-.83.63-.12-.7-1.2-.4v1.04c-.65-.13-.9-.56-1.37.17,1.18.9.29.98-.53,1.55-.11-.52-.75-1.05-1.19-.69-.74.61,1.56.98,1.37,1.88l-1.74.67c.18,1.29-.96,1.76-1.2,2.59-.12.43.18.87.03,1.39-.35,1.2-.55-.78-.87-.18l-1.03,1.38.68.68-.86.86c-.27-.97-1.08-.62-1.88-1.03.05,1.57-2.78,1.96-.35,3.6-1.44,1.48-3.09,2.12-4.29,3.95-.27-1.03-1.57-.43-2.23-1.2l1.02-1.2c-1.47.32-2.34,1.25-1.71,2.74l1.55-.68c1.08-.34.23,1.92-.87,1.37l.34,1.03c-1.13-.56-1.67,1.56-2.4,2.24l.69.34c-.03.09-1.25,1.32-1.37,1.38-.65.32-1.24-.97-2.24-1.2-.8.44-.3,1.43-.6,1.97-.22.41-2.77,2.77-2.32.42-1.46-.14-1.26,1.06-1.86,1.73-1.45,1.62-3.11,3.1-4.49,4.79l-.51-.68-.2,1.07c-2.53.04-1.74,1.19-2.55,2.18-.98,1.2-7.12,4.24-8.8,5.44-.43.31-.54,1.48-1.49,1.26,1.68-1.88,2.14-4.4,3.18-6.6,3.36-7.1,7.37-13.94,11.17-20.74,3.09-5.52,6.76-10.82,8.97-16.78l-.67-.83,1.37.34c.61-1.46-.11-3.33,1.21-4.46l.69.35c.14-1.6.78-3.18,1.63-4.55.6-.96,1.68-1.64,2.11-2.69.54-1.31.51-3.61,1.07-4.76.37-.77,1.76-1.23,2.38-2.09.28-.39,2.51-4.68,2.57-4.99.34-1.64-.83-1.77-1.32-2.83-.16-.35-.48-2.55-.73-2.81-.63-.02-.72-.17-.67.51.07,1.02.29,1.84-.01,2.92l-.86-.69-.34.69c.1-1.08-.94-1.71-1.1-2.28-.18-.62.41-2.2-.62-2.87l-1.37,1.37c-.59-.19.82-1.58-.34-1.38-1.03.18-1.35,2.02-2.91,1.72.43-1.29,1.29-1.82.62-3.36l-1.65-.42,1.03-2.05c-.67-.09-1.47-.57-1.37-1.38l1.38-.18c-.26-.79-1.08-1.8-1.22-2.57-.11-.62.52-1.67-.15-1.72.36,1.88-2.39,4.1-2.6,5.13-.08.4.46.64.38,1.06-.23,1.35-1.45,3.04-2.93,2.04l-.69,4.46,1.02-.34c.36,1.2-.74,1.11-1.05,1.61-.89,1.46-1.72,3.98-2.92,5.58-.21.28-1.15,1.41-1.52,1.05-.03-.78,1.24-1.91,1.3-2.27.12-.7-.89-1.36.39-1.65-1.31-1.95.94-4.34,1.07-5.89.06-.66-.89-1.75-.68-2.67,1.57-.41-.44-1.82-.02-2.28.66-.73.57,1.2,1.37.68l.69-5.14.68,1.71c.08-1.71,2.65-3.78-.69-2.74l-.16.68-.52-1.02c3.41-.59,6.74-1.52,10.18-2,6.2-.87,12.91-1.21,19.17-1.1,1.72.03,3.38.46,5.27.05ZM322.72,24.85c.3.98-.34,2.45-.25,3.22.06.54.68.96.84,1.51.44,1.56-.03,3.68,2.29,3.12,1.7-2.61,3.94-4.13,2.78-7.5-.15-.45-.91-2.09-1.19-2.26-.43-.26-.91.09-1.2.02-.48-.11-.6-.67-1.2-.51-.63,1.54,1.28,2.15,1.35,2.61.06.37-.52.72-.55,1-.04.35,1.45,2.11-.29,1.53-.61-.2-.09-2.07-1.54-2.06l-.34,1.03-.69-1.71ZM293.2,50.93l-2.24-.32-1.2,3.75-1.2-.68c-.62.88,1.28,1.15,1.89,1.71.32-2.07,2.72-1.72,2.75-4.46ZM288.34,61.63c-1.26-.78-1.78,1-2.19,1.3-.5.37-1.15.14-1.72,1.01-.7,1.05-.51,2.38-1.52,3.29v.51c.85-.23,1.7.16,1.88,1.04.12.59-.7.69-.51,1.36h1.71c.1.1-.67,2.57-.76,2.67-.41.42-3.93,1.32-4.73,1.11v1.02c2.68-.4,4.38,2.07,6.84,1.38l.36,2.4c-.56.15-.16-.6-.56-.7-.84-.21-1.71.27-2.52.35l.34-1.37c-2.08.53-3.99-1.02-6.15.38-.24,2.97,2.61,1.28,4.24,1.36,1.27.06,1.95,1.39,3.28.66l.36,2.05c3.94-.78,4.37,2.67,6.84,4.48-.09-1.13-.28-4.03-1.64-3.82l-.41-1.5,1.71-.17-1.37-3.08h2.06c-.25,1.58-.39,3.48.96,4.62l-1.3,1.89,1.02.35c.23-1.65,1.53-2.42.66-4.2-.13-.26-.64-.27-.67-.5-.09-.6.38-1.11.18-1.81s-1.07-.97-1.26-1.53c-.59-1.75.8-4.15-2.33-4.33-.19-.94.08-1.02.85-1.34l.19-.53-2.06-2.45c-.06-.33,1.17-1.34.14-1.5-.87-.13-.92,1.17-.85,1.72l-1.02-1.03c-.59,2.26.66,4.16,1.01,6.3l1.04.22v1.03c-1.34-.28-1.29.41-2.05,1.03.68-2.18-.99-5.13-.85-6.91.02-.26.81-2.9.92-3.14.26-.55,2.33-2.09,1.64-2.98-1.59.97-1.41-.39-1.77-.62ZM271.93,67.74l-2.74,1.54c1.49,1.95,2.57.09,2.74-1.54ZM276.69,70.18c-.33-.21-3.79.82-4.59,1-.53.12-.6-.24-.52.68,1.86-.57,4.59,4.96,5.61,4.78.64-.11,1.7-1.67,1.09-2.38l-2.59-1.03.35-1.02c-1.31.13-2.06-1.04-.51-1.39,1.24-.28.46.97,1.54.7l-.38-1.34ZM269.52,73.23c-1.7-2.01-1.75.23-2.14.63-.29.29-1.22-.35-.94.75,1.51.39,1.82-1.15,3.09-1.38ZM273.3,74.26l-3.29,2.04-.65-.67-.86.69c1.51.57,3.19,1.37,4.8,1.03.17.2-.39,1.28.51,1.03l1.21-.86-1.37-.17,1.37-2.05c-1.01-.36-1.23-.34-2.06.34l.34-1.37ZM308.3,74.95c-1.22-.1-1.6,2.26,0,1.72.08.66-.46,1.02-.61,1.62-.09.35.27.93.12,1.14-.18.26-1.12.42-1.59.81-.78.66-.69,1.93-1.69,1.92-.42.68,2.27.42,2.4.85-.45.76-1.5.31-1.98.59-.29.17-3.29,4.91-3.16,5.76l2.82-4.04c2.05.2,2.54-1.36,3.69-2.15v-.67s-1.01.34-1.01.34l.68-2.06-1.37.18c.3-.72,1.65-.46,1.69-.54.12-.21-.04-.89.2-1.34s1.05-.81,1.14-1.26c.19-.98-1.07-1.78-2-1.5l.68-1.37ZM282.57,80.1l-2.19-.32c-1.6,1.63.19,2.38,1.83,2.01l.36-1.69ZM278.44,80.1l-3.25.34c-.78,1.71,1.59,1.48,2.69,1.33l.56-1.66ZM284.57,80.16h-.92c-1.65,2.22.34,2.52,2.35,2.34.34-1.35-1.22-1.09-1.43-2.34ZM288.3,82.6c-.21-.23-1.12-.61-1.27-.45.12.78-.05.92-.69,1.2l2.39,2.91,1.04-.68c.27-.89-.42-.53-.66-.95-.3-.51-.51-1.7-.81-2.03ZM285.31,86.27c-.31-2.68-3.46-.05-3.46,1.55,0,.87,1.72,3.39,2.17,4.38.25.55.8,1.59.91,1.89.25.63.12,1.58.55,2.13.49-.54.99-2.64.88-3.19-.06-.3-.99-.42-1.26-1.25s.12-1.38.05-1.92c-.05-.42-.73-.59-.53-1.18h1.17c.63-.08.1-1.34-.82-1.57-.36-.09-1.73.38-1.72-.32.01-.74,1.54-.77,2.05-.52ZM279.14,98.63c1.93-.81.63-2.8.71-3.96.04-.53.65-.89.66-1.36.02-.76-1.19-1.96-1.4-.01-.09.87-.48,4.96.02,5.34ZM273.99,102.05c1.03.76,4.06.83,3.77-.85-.14-.84-2.34.27-2.93-.47l-.84,1.32ZM170.84,103.29c-.5-.8-1.4-3.12-2.54-1.74l2.91,3.6c1.36-.04-.23-1.63-.37-1.86ZM245.16,103.09c1.17-.04,2.82,1.07,2.73-.84l-1.84-.89-.89,1.73ZM273.65,106.49c.14-.62.53-.89-.17-1.33l-1.55.33.84,2.79c.63.57,3.13-.11,2.6-1.41l-1.71-.37ZM271.93,108.24c-1.79-.21-3.13-1.44-4.8.17l.57.87c1.24-.52,2.53-.21,3.72-.36.51-.06,1.05-.28.51-.69ZM265.4,133.97c-.98-.18-.56.24-.77.75-.61,1.48-.72,2.8-.6,4.39,1.5-1.12.83-3.51,1.37-5.15ZM229.03,142.55c.38-1.29-2.86-1.33-3.08-1.02.04,1.48,2.08,1.19,3.08,1.02ZM334.04,148.04c-1.12-.53-2.72,2.77-2.4,3.09l1.11-.43,1.29-2.65ZM386.49,150.15l-1.66-.05c.11,1.28-.63,4.5,1.38,3.55.16-1.26,1.08-2.26.29-3.5ZM331.64,151.48c-.73-.16-.78.38-1.09.8-.4.54-2.36,3.21-2,3.66.99-.17,3.66-3.79,3.08-4.46ZM381.05,160.74l.83.66,2.1-2.03-.86-1.9,2.04-.7-.34-2.21c-1.94.16-1.1,1.47-2.04,2.5-.44.49-1.17.44-1.32.66-.27.39-.04,1.74-1.1,2.17l1.37.51-.68.34ZM322.03,166.57l-2.35,2.62-1.42,3.21c.75.74,2.31-3.22,2.49-3.53.36-.63,1.5-1.03,1.29-2.3ZM311.39,182.7l1.21.04c.46-1.3,1.53-2.28,2.17-3.35.35-.58.29-1.29.59-1.81.15-.25,3.27-3.88,1.68-3.8-1.8,2.54-3.65,5.08-5.33,7.7-.27.42-.44.68-.33,1.22ZM388.26,175.5l-3.71.94c-.49-2.09-1.14,1.09-1.48,1.4-.24.22-.96,0-1.33.06v1.03c1.24.41,2.45-1.29,2.6-1.33.35-.08,1.29.48,1.52.3.78-.63-.89-.59-.68-1.02,1.24.04,2.98.29,3.09-1.37ZM382.75,176.55c-.82-.53-1.78.11-2.47-.08-.47-.13-.65-.8-1.29-.63l1.03,1.03-.69,1.02,1.2-.68c.26,1.27,1.33.72.86-.34l1.37.68v-1.01ZM376.93,176.87c-.84.2-1.87.3-2.67.57-.41.14-.41.7-.47.72-.31.14-4.31-.22-5.19.84-.42.52-3.23,1.14-2.99,1.81.36,1,1.97-.29,2.05-.17l.17,1.03c2.02-.69.25-1.9,1.71-2.4l.35,1.72.34-1.04h1.2s-1.03,1.04-1.03,1.04c1.29.43,2.06-1.24,3.03-1.69,1.46-.68.4.26,1.92-1.06l1.57-1.36ZM214.96,181.33l-.68.17c.47.64.38,3.01.5,3.26.25.47,1.02.55,1.14.76.31.55-.2,2.01,1.1,2.33,1.3-2.83-1.42-4.09-2.06-6.52ZM310.7,184.76c-.55-.58-3.81,3.82-4.12,4.28-5.61,8.19-13.92,20.84-17.8,29.9-1.12,2.63-1.51,5.45-2.79,8.02l2.42-.84,6.33-11.86.53,1.88-.98.22-.41,2.36,1.03.17c-.39,1.42-1.3.56-1.99.93-.15.08-1.54,2.73-1.63,3.01-.15.45.27.97.02,1.38-.16.26-1.23.59-1.2,1.37,6.5-2.14,13.68-3.25,20.45-1.74l.48-.66c-.03.24-.06.61.23.69,1.82.47,4.19.61,6.02,1.13,10.68,3.02,21.01,7.6,31.57,11.33.86.3,1.5,1.24,2.67.93,1.06-.9-4.75-2.21-5.05-2.33-3.95-1.59-7.82-3.8-11.68-5.48-2.25-.98-4.61-1.88-6.94-2.67-.85-.45-.73-1.38-.7-2.22-3.46.76-6.12.15-9.33-1.06-.25-.09-.27-.58-.52-.64-1.29-.29-3.07.59-4.05-.7l-.33.69c-3.15-1.47-7.4-.57-10.81-.35.81-1.2,2.61-.88,3.79-1.18l3.07-1.21h-1.72c.46-.96-.35-1.95-1.37-2.07l.65-1.24c-.07-1.35-1.3-.44-1.62-.55-.03-.01-.08-.44-.34-.56-1-.46-1.97-.71-3.01-1.05l-.15-1.4,2.06-.52c-.32-.98-.75-2.11-1-3.09-.23-.89.47-1.75-.73-2.05l.7-1.88h-2.06s.34,1.71.34,1.71h-1.37c.05-.64.4-1.23.38-1.9-.02-.72-.85-.31-.7-.97.28-1.24,1.64-1.51,1.87-1.92.14-.24-.27-1.1-.11-1.81.66-2.91,6.72-10.46,8.64-13.35.22-.33,1.4-2.54,1.24-2.71ZM219.08,188.19l-1.04-.19-.64.77c-.1.38,2.66,6.3,3.12,7.05.19.3.52.92.95.59.14-.11-.77-.65.34-.85-1.04-2.36-3.46-4.64-2.74-7.38ZM234.79,202.32c-.08-.12-1.1-.53-1.5-1.06-.6-.8-.34-2.13-1.52-2.08-.56.63,2.67,3.97,2.06,5.15l1.01-.37c-.28-.38-.02-1.56-.06-1.63ZM294.57,204.67c-.59-.11-.89.28-1.17.71-.21.32-1.75,3.23-1.57,3.4,1.14,1.12,2.52-3.54,2.74-4.11ZM244.12,213.25c-1.69-.11.12,1.61.28,2.3.67,2.86,1.13,5.94,2.31,8.67.34.78,1.32,1.87,1.7,2.76l.34-.68c.9,1.46,1.74,2.47,3.36,3.16,1.13.49,2.05,0,1.59-1.25-.3-.82-3.18-.44-.32-3.97l-.99-.03c.51-1.35-.88-2.73-.99-3.28-.07-.34.27-.82.19-1.25-.24-1.23-1.35-1.9.07-3.34l-4.8-1.03c-.23,1.09.81.44,1.35,1.22.31.45.38,1.11.39,1.65-2.8,1.54-1.7,0-2.16-.73s-1.07-1.46-1.52-2.25c-.33-.58-.59-1.31-.82-1.94ZM287.03,217.02c1.17-.24,2.23-1.99,2.05-3.09-1,.74-2.32,1.63-2.05,3.09ZM82.15,217.03l-.66.25-1.04,1.8,2.05-.68c.48.91-1.06.5-.68,1.2.3.55,1.34.24,1.02,1.2-.71-.28-1.76-.12-2.06.68l1.75.16c.31,2.23,1.22,1.14,2.4,1.36.8.15.41.89,1,.88l-.17-2.06.86,1.71,1.02-1.03v1.38c1.78-.4,1.27.73,2.23,1.71l-.17-2.06h1.03c-.33.53-.02,1.89.54,2.05l1.86-.68-.69,1.37,1.51.36,1.57-1.38-.34,1.37c1.01.25,2.18.12,3.18.37.34.08.94.43,2.11.69.85.18,5.33,1.57,5.34.15,0-.24-1.29-.84-1.02-1.54h1.02s.03.99.03.99c1.3-.33,1.3.64,1.78.84s.97-.09,1.46.21c1.03.62.44,1.35.5,1.39.86.57.74-1.5,1.72-1.53l-.36-.85-.67.33c-.16-.17-.55-3.49-1.03-3.09l-.34.68-.87-1.71-.34,1.38-2.21-.35-.7-1.03.68,2.4h-1.37s.35-.83.35-.83c-1.34-.73-.24-3.83-2.75-2.6v-1.37s-2.75,1.03-2.75,1.03l.68-1.19c-.36-.77-1.14-.15-1.54-.31-1.03-.41-1.03-1.46-2.76-.25-.39-1.21-1.92-1.38-2.37-.34-1.8-.34-1.46-1.05-.54-2.37l-2.4,1.2.52.85c-.97-.42-.99-.65-.86-1.72-.87.51-1.28-.5-1.89-1.02l.51,2.06c-1.31-.31-2.23-.38-3.43.34l1.02-1.37-1.52-.6-1.4.89-.85-1.33ZM286.34,218.39c-.69-.12-.98.44-1.32.91-.92,1.28-2.37,3.74-2.45,5.26,1.36-.46,1.37-2.25,1.82-2.98.21-.33,2.53-2.56,1.95-3.19ZM420.51,224.23c-.73-.32-3.81,1.02-3.08,2.06,1-1,3.02-.31,3.08-2.06ZM376.59,228c-1.86-.8-2.17.25-3.53.75s-3.17.87-4.38,1.47c-.51.25-.83,0-.66.86l7.28-1.81,1.3-1.27ZM182.7,234.52c-.41-1.23-1.54-.35-2.19-.44-.55-.08-.96-.66-1.73-.59-.58.05-1.99,1.06-2.85,1.3-2.56.71-5.74.72-8.41,1.48-3.93,1.11-9.13,2.11-12.73,3.98-1.76.92-1.93.69-3.68.95-1.47.21-3.12,1.22-4.61,1.49-.57.11-1.86.21-1.56-.61h-.33c.14,1.96-1.88,1.42-3.16,1.82-1.21.38-2.83,1.41-4.05.92l-.03.99c-1.1-.36-1.41.67-1.58.72-.68.19-1.7-.49-1.48.69,1.04.02,2.04-.3,3.02-.59,12.46-3.62,24.89-8.56,37.72-11,2.56-.49,5.21-.41,7.64-1.11ZM255.45,236.58c-1.95.62-2.05-1.08-2.43-1.36-.09-.06-1.88.55-1.69,1.18v2.58c1.86,0,4.16-.07,4.12-2.4ZM264.38,244.12c-1.83-2.59-8.44-4.36-11.35-3.62-.45.12-1.86.94-2.92,1.18-1.54.35-3.36.56-4.94.72-.08.49.61.5.95.58,1.61.4,3.1.51,4.71.07l13.55,1.06ZM269.04,245.99c-.93-.43-1.9-1.08-2.94-1.18.52.25,1.68,1.91,1.79,1.98.35.2.96,0,1.36.17.45.19,5.8,3.05,5.76,1.45-.02-.8-4.38-1.45-5.35-1.84-.44-.18-.52-.53-.63-.58ZM133.63,246.87c-1.97.3-3.54,1.88-5.6,1.72l-.22,1.03c.21.24,4.61-1.58,5.16-1.88.48-.26.84.03.67-.86ZM283.25,248.94c-.88.2-1.79-.27-2.57-.28-.3,0-1.89.13-1.89.61,1.28.71,2.42.83,3.88.7l.57-1.04ZM290.8,248.93c-1.34.06-3.03-1.02-4.11.17l.56.87,3.55-.02v-1.03ZM45.69,257.78c.13-.23.26-.89-.08-.96-.56,1.77-3.12-.33-4.29.86l1.03.34c.33,1.46-.69.15-1.03,1.2l2.4-.68.34.86c-.65.43-1.44,1.47-1.37,2.23l-1.37-.35.3-.86c-1.07-.34-.58-1.24-.65-2.22l-2.24,1.71-.33-.69c-1.08.9-1.42,1.75-.86,3.09l1.03-2.06c.59.28.31.95,1.37.69-.16.55-2.29,1.84-.85,2.4.65.25.85-2.05,1.88-2.06.2.42.31,3.21.41,3.35.23.34,1.99.6.8,1.44-.83-1.02-2.1-1.24-3.1-2.05-.37-.3-.48-.98-.53-1.01-.17-.11-1.21.95-1-.36-.97.54.79,2.13.34,3.09-.73-.1-1.37-2.51-1.71-.86.94.97,1.98,2.18,3.43,2.24-.45.29.21,1.79.33,1.87.24.17.73.1.94.27.61.51.17,1.74,2.15,1.63v-1.03c-1.35.46-1.99-1.22-2.6-2.37-.21-.4-.75-.45-.14-.9l1.34-.15c.38,2.53,2.13,2.25,3.8,1.01.46,2.1,3.35-.29,4.47,2.06.19-2.29-3.94-4.02-5.48-2.06v-2.4s3.43.34,3.43.34c-.05-.48.11-1.05,0-1.49-.09-.4-.84,0-.69-.56.72-.08,1.21-.04,1.73.49.71.72.25,2.05,1.35,1.91.34-1.31.35-1.96-.66-2.96l.47-.77c1.93.4,1.23.14,1.63,1.4.33,1.06,2.3.9.69-.67-.56-.55.06-1.59-.26-2.67-.46-1.54-1.16-1.48-2.55-1.55.25.35.24,1.08.43,1.28.32.34,1.61.06,1.63.77l-1.36.02-.19,1.01c-.34-2.12-1.36-.78-1.03.68l-1.2-1.2c1.44-.47.62-2.12,1.03-3.26-1.49-.45-.96.96-1.44,1.3-.52.37-1.89-.17-2.16,1.1-1.81-1.54-.05-1.67.42-2.48ZM38.23,269.52c.11-4.25-6.73-1.67-2.91.69l-.17-1.71c.78.42,1.22.2,1.89-.31l1.19,1.34ZM38.47,270.63c-.09-.1-1.2-.81-1.26-.76l-.69,1.72,1.37-.34c.4,1.12-.06,1.42-.34,2.4l1.02-.34.69,1.03c0-.45-.09-.99.17-1.38.23-.36.97-.14.86-.68l-1.71.34.68-1.02c-1.13.06-.74-.89-.8-.96ZM254.08,396.15c-2.26.47-1.96,2.65.34,2.4l-.34-2.4ZM254.11,437.02c.76,1.41-1.15,3.87.5,4.11,1.71.25,4.58-2.65,3.79-4.5-.66-.91-3.34.05-4.29.39Z"/>
</svg>