<?xml version="1.0" encoding="UTF-8"?>
<svg id="Capa_1" data-name="Capa 1" xmlns="http://www.w3.org/2000/svg" viewBox="0 0 500 517">
  <path d="M222.24,72.66c3.34-3.47,8.57-.65,12.85-1.91,4.63-6.67,8.17-29.84,15.02-33.31,1.27-.65,3.99-1.43,4.88-.82.64.44,4.1,12.45,4.94,14.74.68,1.85.44,4.71,1.55,7.42.89,2.16,9.03,17.54,9.87,18.13,2.17,1.53,6.5-2.02,8.1-.88.49.35,3.48,8.97,3.54,10.58.17,4.8-4.59,14.36,1.5,18.04,7.27,4.39,18.67-7.56,26.23-4.13-.26.84.18,2.25,0,3.28-2,2.08-4.71,17.52-4.98,22.05-.6,9.92-1.12,35.56,2.02,43.99,1.54,4.12,10.75,3.57,14.4,1.92,2.26-1.03,5.46-5.99,8.36-8.01,6.07-4.24,14.16-7.25,19.36-11.77,5.46-4.76,10.87-14.09,17.37-18.67,2.76,16.49-4.8,23.75,16.21,21.11,11.03-1.39,25.57-7.2,34.49-13.01,10.66-6.93,6.81,9.74,3.22,16.39-6.8,12.59-14.57,21.8-17.95,37.66-2.54,11.93,1.75,11.93,13.42,13.04,2.98.28,13.77-2.36,13.65.97-.1,2.57-28.35,35.25-31.1,40.95-2.36,6.56-4.12,12.14-8.49,17.79-4.86,6.29-15.31,7.53-12.86,17.91,1.1,4.69,12.38,3.86,15.32,4.46,1.36.28,1.16,2.93,3.11,3.77,3.45,1.47,29.71,11.39,31.7,11.67,2.79.39,15.63-2.49,12.15,2.53l-44.22,30.32c-12.94,7.39-2.89,18.24-14.65,24.67-17.28,9.45-34.48,2.27-53.4,3.94-19.45,1.72-6.53,18.6-2.78,30.4-2.79,5.43-9.76,4.66-14.78,3.68-11.97-2.35-42.56-24.33-52.03-33.15-2.12-1.97-15.29-20.06-17.97-17.23-1.39,10.47-4.68,20.33-3.27,31.11l3.24-8.18c-7.86,42.66,9.02,83.13,14.77,124.51-9.95,1.81-9.86-2.7-9.85-11.47l-3.24,3.26c-5.79-15.3-3.77-31.13-4.95-46.66-.71-9.27-2.96-20.27-3.33-29.44-.86-21.64,1.12-43.21,1.69-64.78-4.83,2.92-8.04,7.86-12.26,11.48-18.07,15.47-46.25,31.66-70.32,32.76-1.07.05-.8,2.96-2.03,3.28-2.81.73-8.79.38-8.51-3.76.61-9.11,18.33-38.35,17.77-41.24l-4.09-2.51c-23.37-.43-46.21-6.37-69.62-4.92-3.29-3.18,14.94-18.88,7.69-27.38-.94-1.11-11.11-7.43-13.39-8.78-2.33-1.38-5.05-1.09-5.79-1.51-5.24-3-36.87-20.1-37.67-22.14-.99-2.53,6.81-5.31,8.69-6.03,5.78-2.22,11.67-3.97,17.51-6.24,9.46-3.66,19.63-8.11,29.41-10.73,12.96-3.47,36.21.3,21.35-21.26l-46.66-41.74c-4.93-7.32,12.21-7.15,13.79-12.53.68-2.31-3.92-12.83-8.06-12.04-.05-.54.11-1.13,0-1.64-1.27-6.07-7.73-10.52-8.15-17.27-.26-4.23,2.65-1.4,6.46-3.23,6.95-3.33-3.23-25.52-4.86-31.93,14.98-5.49,34.42,7.75,49.15,13.11,7.74,2.82,10.96,6.39,14.74-4.91,1.08-.08,2.19.02,3.28,0,.76-.01,2.27-1.36,3.28-1.64h1.64c-.05,5.74,17.87,25.75,22.92,30.33,4.04,3.66,26.08,21.42,29.57,22.87,2.88,1.19,5.28,1.54,8.16.08,13.68-6.93-6.83-57.05-6.35-70.57.16-4.5,5.49-8.61,4.69-13.84,5.87-2.21,1.3-.99,3.28-3.28.3-.35,2.51.32,3.28,0,16.37,14.35,17.74-6.58,18.02-19.66Z"/>
</svg>