<?xml version="1.0" encoding="UTF-8"?>
<svg id="Capa_1" data-name="Capa 1" xmlns="http://www.w3.org/2000/svg" viewBox="0 0 500 517">
  <path d="M208.23,48.21c2.51,2.64,5.73,7.35,7.69,10.4,4.79,7.43,11.13,18.79,13.73,27.05,2.25,7.16,3.8,22.79,8.49,27.7,5.37,5.62,5.48-.65,7.59-4.46.79-1.42,1.6-2.41,2.48-4.32.24-.52,2.01-.89,1.13-3.3l1.14.58c-.81-2.54,1.13-3.12,1.74-4.31,3.91-7.62,11.71-16.82,18.36-22.41,9.23-7.76,16.45-6.68,23.22,3.22,15.84,23.17,11.15,65.77,10.13,92.74-.37,9.67-2.91,17.3,2.37,26.3,2.12,3.61,4.71,6.9,9.21,5.97,2.55-.52,2.23-1.7,2.96-2.46,3.99-4.16,12.53-14.1,18.46-14.08s11.82,5.16,14.9,9.85c8.02,12.22,4.89,32.46,6.08,46.77.23,2.79,1.96,14.07,4.37,15.08,3.53,1.48,5.59-2.66,7.97-4.45,8.48-6.37,16.07-9.81,23.5.05,4.92,6.52,5.81,15.77,3.91,23.35-1.34,5.37-4.1,9.78-4.5,16.05-.07,1.04.48,2.19.41,3.35-.29,5.38-1.94,11.92,1.6,16.59.6.8,2.58.4,3.51.07,5.79-6.25,15.56-19.07,25.04-12.7,5.57,3.74,11.79,11.91,11.06,18.95-.63,6.07-6.28,19.56-4.83,25.07,3.69,14.01,20.84-.05,27.55,11.51,2.86,4.92,1.34,15.45-.42,20.76-.57,1.71-2.3,3.34-2.59,5.5-.26,1.91.66,3.42.47,5.3-.3.3-2.86-.68-2.3.85,1.2,3.23,12.3,9.76,15.71,11.35,1.08.51,2.4-.33,3.28,1.25.66,1.2.29,2.03.58,2.78.22.57,1.1.25,1.18,1.27.08,1.1-.18,5.84-.79,6.47-1.98,2.07-2.58-.87-3.12-1.01-1.4-.36-3.68.25-5.5-.12-.95-.19-3.27-1.5-4.26-2.06-5.99-3.38-11.48-9.29-17.12-13.31-1.01.63-.63,1.82-1.08,2.67-.55,1.02-2.63,1.44-2.69,1.68-.13.5-.05,4.44.13,4.74.45.71,3.94.58,3.35,2.39h-4.59c-.49,1.03,1.86,1.91.58,2.6-1.18.63-3.1.05-4.64.53-1.12.35-2.06,1.89-2.63,1.99-.77.13-1.63-1.45-2.75-1.08-.6.2-.66,1.36-1.04,1.58-.5.29-1.32-.02-1.71.17-10.44,4.93-26.55,5.9-39.19,3.38-1.64-.33-6.29-2.36-7.24-3.67-.72-.99-.56-2.35-1.19-3.41-2-3.36-3.4-3.69-3.42-8.69-.02-4.35,3.1-8.1-1.85-10.74-6.33-3.38-12.84.24-19.17.47-6.24.23-14.37-1.51-20.45-2.79-3.36-.7-8.49-4.06-10.21-7.02-1.24-2.13-1.58-10.16-.98-12.52.47-1.84,2.51-2.61,3.46-4.01,2.21-3.26,5.2-8.57,7.06-11.89,1.32-2.36,2.67-.96.72-4.83-1.45-2.88-5.89-7.39-8.54-9.27-5.81-4.1-14.49-2.91-20.79-.26-2.99,1.25-1.93.36-5.33.48-1.19.04-7.46.52-7.97.7-.8.28-.77,1.4-1.02,1.58-.35.25-1.27-.61-2.18-.24-.51.2-1.04,1.25-1.91,1.59-4.49,1.75-11.86,5.47-15.89,6.51-3.3.85-6.99.37-10.05.86-5.51.88-12.92,3.12-18.41,3.47-2.64.17-8.26-2.81-8.34,1.67-1.21.45-2.25-1.18-3.04-1.05-.48.08-1.06.94-1.86,1.03-11.64,1.21-26.45,2.4-37.83-.04-6.06-1.3-14.91-9.85-16.18-16.01-.21-1.01.4-1.8.31-2.57-.14-1.06-1.11-1.67-1.19-3.46-.09-1.89,2.38-6.5,3.1-9.07.19-.69-.22-1.51-.15-1.55.32-.18,1.29.27,1.76-.37,1.42-1.96,2.65-6.52,4.88-9.37,4.81-6.19,17.86-12.62,6.85-20.16-2.73-1.87-6.31-2.71-9.54-1.96-.85.2-1.46,1.16-2.55,1.36-3.91.74-9.85-.66-13.71,1.82-.66.42-.79,1.53-1.32,1.66-1.22.3-2.91-.31-4.36.11-6.89,1.99-15.04,7.18-22.09,9.51-9.02,2.98-17.76,2.25-26.18,4.17-.46.11-.15,1.04-1.22,1.18-4.02.53-7.08-1.6-8.07-1.58-.63.01-1.28.84-2.7.83-2.82-.03-6.04-2.18-7.63-2.21-1.97-.04-3.08,2.02-4.46,1.69-.73-.18-2.08-1.47-3.32-1.91-5.23-1.89-11.15-2.77-16.21-5.05-3.41-1.54-6.7-5.17-9.19-6.62-.57-.33-1.6.08-2.05-.21-.37-.24-4.36-6.31-4.57-7.22-.77-3.19-1.45-13.42-.58-16.41.21-.71,1.16-1.22,1.47-1.97.98-2.4,1.28-3.9.71-6.48l1.14.58c.22-2.26.95-4.41,1.88-6.46,3.63-8,8.88-11.75,16.09-16.11,1.27-.77,4.48-1.89,5.34-2.68,1.31-1.2-.08-2.72,3.12-2.62-3.8-4.11-10.53-5.55-15.93-7.05-3.38-.94-9.1-1.51-12.38-2.55-1.01-.32-1.37-1.5-2.15-1.87-5.82-2.75-10.61-4.97-15.26-10.07-2.22-2.44-5.16-8.17-6.14-11.61-1.75-6.14-.69-6.46.46-11.92,1.48-7.04,3.23-16.09,8.76-21.27,4.41-4.13,10.54-5.6,14.49-10.05-.99-.18-1.55-1.68-1.88-1.86-.64-.35-1.59.04-2.03-.24-.54-.34-7.03-8.58-7.7-9.85-1.08-2.02-2.56-7.19-2.77-9.35-.02-.24.61-4.2.68-4.52.15-.7,1.5-.64,1.66-1.3.39-1.59-1.08-2.89,1.71-2.47-.58-1.08-.64-1.86-.54-3.07.24-3.12,5.29-11.66,7.72-13.58,1.86-1.47,9.95-4.45,10.28-5.16.2-.43-.29-1.13-.24-1.15,1-.53,2.85.71,4.63-1.99.52-.79.34-1.57.61-2.14.24-.53.98-.49,1.07-.87.43-1.84-.25-4.65.06-6.74.14-.98,2.4-7.76,2.86-8.48.67-1.05,3.29-2.35,4.28-3.33,4.45-4.44,3.65-6.11,11.4-6.1,4.89,0,8.41,2.32,12.73,2.11l2.56-11.17c.24-.74,1.43.04,1.77-.72.92-2.05.32-6.14.62-8.47.37-2.83,4.83-11.52,7.22-12.88,2.06-1.17,7.29-1.52,9.66-1.26,5.24.58,14.64,8.74,18.6,12.44,4.17,3.89,14.35,16.83,18.48,18.25.72.25,1.24.37,2.01.39.48.01,3.09-1.42,3.15-1.59.73-2.15.66-6.23,1.14-8.42.11-.5,1.22-.41,1.46-1.5.21-.97-.44-3.2-.21-3.79.17-.43,1.26-.58,1.75-1.57,3.04-6.05,4.24-12.42,8.8-18.21,3.25-4.12,7.68-6.5,13.04-5.64,6.49,1.04,17.91,9.18,22.49,13.99Z"/>
</svg>