<?xml version="1.0" encoding="UTF-8"?>
<svg id="Capa_1" data-name="Capa 1" xmlns="http://www.w3.org/2000/svg" viewBox="0 0 500 517">
  <path d="M48.14,455.17c12.7-.97,16.65-9.22,25.14-14.75,15.85-10.33,27.04-15.92,38.47-32.67,3.26,1.57-8.43,14-.05,10.74,6.55-2.55,28.88-26.23,31.8-32.89,6.36-14.51,6.37-52.83,5.95-69.47l-4.27-87.32c3.76-.5,2.03,4.9,2.13,7.51,1.41,34.14,3.89,68.26,4.33,102.42l8.58-51.72-6.52,70.02,6.5-2.18-6.41,20.53c5.27-4.67,12.03-14.74,14.42-21.13,3.72-9.93,11.73-57.99,11.29-68.18-.14-3.35-10.58-34.35-12.78-31.42l-2.15,6.46v-28.01s4.27,4.29,4.27,4.29c.32-12.71,8.58-21.49,4.35-34.5l4.27,2.18c.27-8.68,4.72-16.71,6.31-24.97,1.47-7.59-3.42-16.35,4.45-19.62l2.21-48.11,10.77,60.37,4.28-2.19c-3.22,11.51-.64,22.7.02,34.51l-2.24-1.24.07-11.71c-1.39.12-2.99-.22-4.3.01,1.42-11.47.34-21.43-2.82-32.77-.62-2.22-.51-6.53-3.62-6.03,1.31,12.27-1.92,28.03.07,39.78.43,2.55,1.28,5.1,4.2,5.48.37-2.49-1.69-5.77,2.18-6.47-1.02,8.26-3.74,14.78-4.4,22.55-2.02,23.7.76,50.75,2.27,74.46l12.78-35.72c-2.44-15.98-3.28-32.23-4.18-48.35,4.44,7.04,3.2,21.85,4.31,31.3.38,3.21,1.71,6.6,4.31,3.18l-2.14-78.67-4.3,1.09c4.73-15.41-4.63-29.32-2.16-45.28,6.2-1.04,3.56,1.36,4.59,4.99,7.55,26.48,5.18,56.38,10.52,83.38l6.42-17.22c-5.67,26.92-8.05,52.05-6.42,79.75l12.23-51.33,7.16-55.22-4.3-5.54-2.16,6.46c4.6-13.31-2.56-16.33-6.89-26.54-7.42-17.52-14.12-42.44-23.24-58.27-1.62-2.8-6.26-.21-6.69-2.62-1.42-7.91-.61-16.52-4.14-24.66l45.23,92.68c1.13-10.32-.55-18.66-2.76-28.47-4.07-18.04-21.74-50.13-22.35-64.89-.06-1.47.6-8.66,3.55-7.95l17.25,53.87c-2.36-16.44,1.08-29.34-6.42-45.26l6.43,4.31,2.16-6.46.54,17.8,16.71,51.17c3.18-27.49-9.88-54.65-12.66-81.11-.25-2.38-1.94-7.77,1.88-7.26,5.24,16.17,5.87,34.15,9.16,50.14,2.66,12.95,8.15,26.45,10.04,39.55.32,2.25,2.01,9.85-1.9,9.45-.52-4.49.59-14.93-4.33-17.24v31.26c0,5.85,6.92,17.76,6.49,24.8,8.02,1.74,3.01-10.51,4.31-15.08l4.26,4.28c5.47-15.22-2.94-30.95-4.35-46.31l4.35,3.2.04-23.69,6.04,57.16-1.73,9.66c11.25-10.11,10.74-29.03,10.78-43.11l4.27,12.91,8.67-103.46c2.93.06,4.02,10.15,4.08,12.08.4,12.38-3.89,37.76,4.56,45.2l-6.49,63.44c8.29-6.74,14.87-21.76,18.69-31.95,7.28-19.42,14.01-44.79,17.96-65.05l4.26,12.91,6.52-23.69c2.73-.73,3.46,3.89,3.35,5.42-.99,13.42-9.06,30.79-11.97,44.14l12.94-25.85c9.12,3.21-2.1,12.86-5.45,19.36-15.31,29.67-22.74,59.72-31.1,91.83-.25,5.82.33,4.79,2.55.38,5.59-11.1,9.69-24.2,15.11-34.51,4.62-8.79,15.43-17.78,16.74-29.62,4.22-.35,1.61,4.26,1.08,6.46-7.69,31.51-22.29,55.09-35.58,84.07,15.27-15.78,30.71-32.05,45.25-48.51,3.3-3.73,4.81-9.54,7.89-13.43,8.06-10.19,44.74-40.62,56.96-48.93,3.58-2.43,5.18-4.89,8.45-.15-19.39,17.44-43.05,32.28-60.41,51.68-29.77,33.27-55.31,73.71-86.09,105.79-2.4,2.5-7.08,3.84-8.84,6.26-3.72,5.11-5.04,18.39-10.65,23.84,7.72,3.78,10.49-3.91,15.06-7.55l-.85,15.21c-11.18,1.25-23.55,15.92-3.46,12.83-.23,12.8-11.62,10.22-21.11,11.22l-24.13,28.68c3.64,9.97,8.54,2.3,10.36,1.31,5.97-3.24,10.16-5.52,15.51-9.93,5.83-4.82,12.84-16.75,19.37-15.13l-19.39,20.47c13.5-2.69,29.08-7.49,40.35-14.61,16.35-10.33,40.63-40.47,57.79-45.7,1.12-.34,3.52-.6,3.18,1.03-5.37,5.96-11.74,7.69-14.1,16.03l-18.22,14.17c6.23,1.78,14.53-8.68,20.51-11.84s-1.76,5.99,4.22,4.25c13.92-4.06,27.9-15.44,41.38-21.15l28.74-21.9c-8.97,9.52-12.91,20.12-23.71,27.98l14-4.31-1.08,4.31c5.55-.61,10.37-1.98,16.1-2.24,2.37-.11,10.18-1.44,9.78,2.23-9.28.43-21.44.84-30.29,3.13-7.17,1.85-8.93,4.93-13.93,7.64-5.89,3.2,1.66-6.48-4.23-4.26-10.9,4.1-23.76,16.26-30.25,25.83l-4.31-4.43-18.29,6.57c3.33-5.31,14.36-6.13,18.36-10.71,2.31-2.64,1.58-5.43-2.16-4.33-2.06.6-36.15,19.11-37.73,20.57-2.36,2.18-1.38,6.25-3.69,7.51-4.57,2.47-14.55,3.78-20.05,8.57,3.62,6.74,17.82-7.63,21.53-.05-13.06,4.65-27.68,5.21-38.8,14.06l26.96,3.38c29.34-3.43,55.74-16.77,83.07-24.9,4.09-1.22,23.94-9.17,25.8-7.6l-6.46,10.75h17.23s-107.77,36.65-107.77,36.65l91.85-4.08,18.08,4.08c-18.99.73-38.22-.88-57.21-.07-30.11,1.29-60.02,1.66-86.8,14.62-2.93,1.42-5.95-1.38-4.72,4.87,15.55-4.33,34.47-2.35,50.37-4.59,11.78-1.66,22.27-6.65,32.86-8.11,2.29-.32,7.83-1.85,7.28,1.9l-15.07,2.2,8.6,4.27-15.07.04,12.91,4.27c-10.41.73-25.53.24-35.43,2.31-9.4,1.97-20.38,7.77-31.39,10.65l19.39-10.76c-26.83.9-53.57,3.66-78.88,12.62-3.08,1.09-3,3.85-6.01,4.93-11.13,3.99-27.31,3.56-35.82,12.59,18.12-2.45,36.27-3.68,54.29-7.13,16.06-3.07,31.3-8.14,47.03-12.25l-73.28,25.9c-.55,3.2,4.05,2.68,6.42,3.21,14.33,3.23,30.58,5.07,45.29,5.41l-4.29,4.27,19.38,2.16c-6.72-.01-13.46.32-20.19-.26-12.73-1.09-45.73-10.71-53.89-9.9-6.39.63-38.65,19.12-50.95,23.11-1.46-3.39,23.87-9.05,14.18-10.66l-50.72,14-34.59,5.25c23.34,5.86,48.73-1.33,71.13-8.6l-43.11,15.07,36.63.05-21.54,4.27,45.25-2.11-15.07,4.27c24.9,1.51,51.89-1.96,76.54,0,2.5.2,9.66.67,9.68,4.3l-104.48-.09-7.61,2.24c8.83.16,18.61,3.52,27.17,4.12,12.62.88,25.41,1.21,38.59,2.35,13.41,1.16,27.37.94,40.76,2.36,2.06.22,8.11.97,7.72,4.1-45.09-5.98-91.49-3.1-135.32-16.64l-28.53-2.76,2.17-4.24-18.44-6.45,5.5,4.27-3.22,4.24-22.64-12.89v-4.31ZM145.15,425l-10.17,1.66-39.39,22.01,9.42-2.4,40.14-21.27ZM199.04,427.17c-9.85-3.21-20.5-2.6-30.76-1.7l-46.83,23.21,45.27-7.51,32.31-14ZM188.26,399.13l-17.34.95-14.97,9.78,10.38-1.45,21.94-9.29ZM181.81,274.07v-31.26c0-4.11-5.62-13.18-5.38-18.31-11.2,14.98-5.7,29.39.52,44.83,1.32,3.28-1.28,5.81,4.86,4.74ZM224.91,399.13l-30.16,3.22-19.4,11.82c13.83-1.41,30.43-6.44,43.68-11.29,2.26-.83,6.4-.74,5.89-3.76ZM179.67,297.8l-4.31,40.94,7.98-14.27-3.67-26.67ZM183.99,190.01c-3.59,14.2-8.58,26.17-4.32,40.93l6.42-33.44-2.11-7.49ZM183.98,267.6c.14,12.23-2.4,28.31,8.58,36.65-.22-11.32.28-28.44-8.58-36.65ZM207.7,267.62c-1.54,12.03-13.36,25.36-5.42,36.67l5.42-1.3c-1.43-9.77,1-18.87,1.87-28.12.23-2.4,1.98-7.75-1.87-7.26ZM242.19,166.29c-2.14,38.06-10.94,75.16-19.4,112.08l15.53-40.63c.99-.96,4.78.7,6.11-1.7.98-1.76,10.32-35.89,10.6-38.76.5-5.18-.73-8.97-2.1-13.74l-4.26,12.91c-.71-10.03,3.24-23.49-6.47-30.16ZM246.47,250.33c-.87,7.01-6.21,11.39-8.71,18.24-5.9,16.18-7.58,34.34-12.81,50.77,6.53-7.62,11.55-19.44,15.47-28.71,10.81-25.59,19.12-53.86,21.15-81.23-5.73-1.09-3.75,1.22-5.27,4.31-5.85,11.93-10.48,24.94-14.15,37.69l4.32-1.08ZM280.97,366.8c-12.79.42-27.32.66-39.96,2.04-3.22.35-6.65.48-7.46,4.38l20.2-.26,27.21-6.17ZM237.88,90.83c-.89,10.27.8,20.26,3.19,30.19l9.7,27.99-.54-13.45-12.35-44.74ZM265.86,226.64l-21.51,62.52c8.59-2.44,12.08-13.41,12.93-21.56l8.61,2.14-4.41-7.54c8.88-10.26,6.83-22.84,4.39-35.56ZM287.47,136.1l-4.31,43.1c3.27.09,3.64-7.49,4.03-9.95.72-4.55.16-9.2.28-13.75l4.27,4.29c-.51-5.55-.48-11.21-1.46-16.68-.47-2.64.66-7.53-2.81-7.01ZM302.55,164.11l-4.3,32.35c5.65-4.39,7.49-18.02,8.35-25.06.55-4.55,2.09-8.51-4.05-7.28Z"/>
  <polygon points="149.46 493.99 138.58 495.16 95.58 481.06 149.46 493.99"/>
</svg>