<?xml version="1.0" encoding="UTF-8"?>
<svg id="Capa_1" data-name="Capa 1" xmlns="http://www.w3.org/2000/svg" viewBox="0 0 513.24 408.22">
  <g id="wh1sO6">
    <path d="M339.7,93.75c2.56-1.89,4.37,7.76,4.45,9.2.29,5.31-1.68,9.75-2.23,14.8-.5,4.58-.27,10.04-.74,14.75.68,3.77,4.85-.66,4.44,2.22-1.92,3.59-4.1,6.83-5.53,10.72s-4.8,14.29-5.38,18.24c-1.55,10.55,1.86,12.2,8.69,4.8,4.49-4.87,8.5-10.36,13.64-14.96,4.35-3.88,9.02-5.81,12.92-10.7,3.47-4.35,10.28-21.89,12.95-23.23,1.15-.58,1.26.81,1.46,1.46,2.45,7.96.59,18.79,13.58,12.11,10.91-5.61,31.98-25.69,38.36-36.21,2.4-3.96,3.64-8.64,5.66-12.78.53,0,2.96,4.76,3.15,5.69,1.11,5.35-1.53,21.27-2.05,27.88-1.41,17.86-4.49,43.03-2.15,60.47.53,3.93,2.98,7.35,7.35,6.77,1.79-.24,6.79-4.21,6.64-1.52-.31,5.56-5.9,7.79-8.88,11.07-6.38,7-15.36,26.76-.33,29.11,11.06,1.73,16.92-3.5,25.85-5.08,1.18-.21,2.86-.62,2.55,1.07-.57,3.08-16.64,19.29-19.94,22.15-6.24,5.41-25.5,17.54-27.75,24.69-1.68,5.35,2.98,6.9,6.79,8.78,8.95,4.42,24.04,10.57,33.51,13.75,7.89,2.65,16.44,3.37,24.35,5.92-6.17,5.56-16.49,6.11-24.33,8.89-6.22,2.21-33.99,14.33-37.35,18.02-4.87,5.33,5.08,9.57,6.3,14.8-6.12.56-11.41-3.63-17.43-4.35-5.12-.6-29.88,1.66-31.24,7.07-1.21,4.82,15.08,13.97,19.15,15.35,2.23.76,9.55,1.71,10.35,2.21,1.15.73.88,1.39-.04,2.22-1.43,1.3-8.63,3.02-10.79,3.24-17.45,1.82-57.04-8.08-74.28-14.15-19.66-6.92-32.87-20.43-50.3-30.18-4.5-2.52-9.3-5.04-14.5-5.76-1.48,5.94-2.76,12.1-3.62,18.17-1.63,11.5-3.71,29.2-3.08,40.53.36,6.5,3.13,11.4-.39,18-.19.35-3.35,4.36-3.58,4.54-3.6,2.68-9.52-1.75-8.61-6.23.07-.36,2.93-1.44,4.08-2.73,4.7-5.28,5.47-32.42,6.33-40.91.44-4.39,1.79-8.89,2.2-13.31.48-5.22-.28-10.68.75-15.86-1.79-.06-3.56-.08-5.35.19-8.13,1.2-22.82,3.89-30.3,6.62-11.91,4.35-24.48,15.05-36.96,19.9-9.12,3.54-19.75,5.48-28.56,9.83-4.56,2.25-8.73,6.99-14.77,6.27-.29-3.06,7.33-7.25,3.16-9.43-5.1-2.67-25.79,5.14-27.95,2.1-2.64-3.72,3.06-5.43,4.6-6.95,8.76-8.64,10.56-16.12-3.4-19.35-7.92-1.83-13.69.24-21.45.4.27-2.51,3.25-3.38,2.97-6.24-.19-1.92-3.37-3.73-4.97-4.68-14.67-8.77-30.22-10.28-44.91-16.37-1.89-.78-7.95-3.26-2.9-4.41,5.94-1.35,12.14-1.92,18.06-3.35,10.51-2.54,20.14-6.78,30.25-10.36,6.25-2.22,13.15-3.17,19.46-6.38,13.06-6.66,9.28-13.43,1.22-23.1-4.85-5.81-8.97-6.67-14.02-11.09-1.3-1.14-4.65-4.58-5.02-6.07-.85-3.39,3.79-1.52,6.16-1.65,4.59-.24,5.31-1.9,3.36-6.38-3.18-7.3-12.55-11.18-18.16-15.8-1.86-1.54-2.85-3.48-2.58-5.91,4.36.34,9.59.09,8.89-5.52-4.36-14.55-7.57-29.4-11.32-44.1-2.16-8.5-5.59-16.71-7-25.48-.3-1.85-1.8-10.83.21-11.27,1.3-.28,10.37,14.28,13.26,15.52,9.17,9.18,21.51,13.91,33.64,18.05,3.8,1.3,14.91,5.36,18.13,5.51,5.86.28,6.32-4.57,4.01-8.81,2.89-2.63,13.21,10.77,15.49,12.92,3.62,3.41,10.08,8.96,14.08,11.76,1.29.9,7.77,4.96,8.8,5.24,6.74,1.79,6.82-2.62,6.71-8.17-.14-6.66-2.05-12.76-1.55-19.94.21-3.01,1.56-5.58,1.46-8.8-.2-6.28-6.88-26.93-4.77-30.69.67-1.19,1.31-.25,2.09.17,4.12,2.23,11.5,13.17,16.17,5.53,5.39-8.82-1.12-26.65,4.65-36.69.76-1.14,1.25-.44,1.85.38,2.8,3.77,7.19,16.61,14.07,11.11,5.78-4.62,4.62-19.04,8.04-21.48,3.22-2.3,2.92,5.77,7.1,6.34,2.09.29,4.94-1.77,6.24-3.34,5.42-6.54,16.31-37.38,18.99-46.72.67-2.35.37-10.71,4.54-6.35,3.66,3.82,5.37,16.4,7.13,21.67,5.99,17.92,15.99,40.93,25.33,57.35,1.97,3.46,8.74,14.21,12.06,15.25,9.34,2.92,20.24-9.97,22.78-17.96Z"/>
  </g>
</svg>