<?xml version="1.0" encoding="UTF-8"?>
<svg id="Capa_1" data-name="Capa 1" xmlns="http://www.w3.org/2000/svg" viewBox="0 0 500 517">
  <path d="M300.12,71.79c1.41.88,3.58.13,5.86,2.03,3.26,2.71,10.23,19.55,14.63,22.33.33.21,2.81-1.16,5,.15.51.3,6.8,7.78,7.74,8.98,6.18,7.89,10.84,16.82,17.84,24.73.49.56,2.51,0,3.3,1.1,2.99,4.14,7.65,14.18,11.23,18.27,1.67,1.92,11.31,5.29,11.76,7.33s-.44,4.41.23,6.78c2.2,7.81,11.44,17.37,14.25,28.21,2.34,9.03,7.52,25.62,8.43,34.09.4,3.68.37,32.24-.19,34.72-3.89,17.27-14.14,23.72-21.36,36.87-4.52,8.23-2.6,12.01-11.67,19.83-11.63,10.03-27.56,16.06-40.04,25.55-7.97,6.07-15.74,4.88-22.89,8.71-1.61.86-1.77,3.16-2.86,3.43-7.69,1.9-28.48,2.64-35.84-.34-2.06-.84-4.8-4.52-5.17-4.51-1.23.02-1.74,3.8-2.54,4.72-35.74,41.34-58.88,95.52-100.81,130.97l-17.39,7.48c-.07-10.83,3.1-8.02,10.08-12.36,34.51-21.44,57.64-60.95,79.2-94.33,4.34-6.71,13.95-18.12,16.87-24.39.58-1.25.85-2.22.63-3.61-7.98,2-14.04-3.79-22.57-4.73-19.08-2.11-27.79-1.07-47.52-5.88-8.35-2.04-11.77.65-19.36-6.74-7.24-7.05-6.97-6.64-15.54-12.97-15.5-11.46-17.04-15.17-27.27-29.77-3.93-5.61-11.23-9.9-11.91-17.33-.23-2.56.93-4.55.72-6.65-.85-8.49-4.13-18.15-3.5-26.98.23-3.18,4.74-12.97,4.88-15.74.11-2.08-1.9-4.34-2.1-6.45-.61-6.36.57-12.75,4.57-17.92,1.04-1.34,3.4-1.6,3.58-1.86.14-.21-1.32-2.9-.94-5.04.65-3.73,4.37-4.17,4.71-5.41.83-3.04-1.15-8.47.55-11.39.65-1.12,2.81.12,2.93-.03.85-1.06,3.97-13.55,5.61-15.66,1.04-1.34,3.56-.8,4.05-1.39,4.97-5.95,4.16-21.15,6.56-28.01.86-2.47,15.71-25.07,17.34-26.34,5.55-4.33,11.87-1.91,13.62-11.88.41-2.34-1.24-4.89.32-7.82.61-1.14,13.05-17.24,13.94-17.95,2.42-1.96,10.78-1.75,14.81-6.41,2.9-3.36,2.65-12.75,4.6-15.43,2.14-2.94,10.55-.51,7.36-9.79-1.18-3.44-4.61-3.1-5.52-6.62-2.88-11.07-.52-15.15,10.87-10.87,4.18,1.57,6.25,4.51,9.72,6.05,22.72,10.08,46.16,13.3,67.33,28.54,4.02,2.9,10.48,10.87,11.9,11.76Z"/>
</svg>