<?xml version="1.0" encoding="UTF-8"?>
<svg id="Capa_1" data-name="Capa 1" xmlns="http://www.w3.org/2000/svg" viewBox="0 0 500 517">
  <path d="M116.7,218.13c13.46-12.79,46.19-9.97,63-6.1-6.72-7.36-10.1-17.71-16.31-25.42-6.84-8.5-18.12-16.41-25.94-24.92-4.57-4.99-21.16-24.16-19.07-30.57.4-1.23,8.8-7.14,10.62-7.68,10.69-3.22,20.76-1.93,31.13.21,6.82,1.41,11.22,2.74,17.01,4.29,7,1.87,9.57,4.9,16.22,7.63.85.35,2.36-.28,2.52-.14.75.68.78,4.34,3.01,4.64-1.09-5.06-2.72-10.02-3.55-15.15-3.56-21.87-4.48-37.08,1.16-58.73,4.44-17.02,13.67-40.94,33.7-43.07,22.44-2.38,31.79,18.92,38.92,36.66,3.23,8.04,5.55,16.43,6.82,23.85,2.34,13.75,2.76,27.6,6.46,41.09,8.88-3.97,16.34-11.06,25.06-15.72,14.66-7.83,36.16-15.11,52.7-10.71,5.65,1.5,6.11,3.55,5.74,9.59-1.59,26.14-31.12,53.46-48.51,70.54-17.97,17.66-28.97,33.82-57.55,33.69-2.62-.01-5.29-1.7-6.72-1.6-9.05.6-4.25,19.54-5.27,25.03l2.86,23.52c1.24-11.24,7.74-23.05,15.34-31.21,20.01-21.48,78.74-46.16,107.55-38.41,24.17,6.51,9.49,25.23-2.91,35.56-12.87,10.73-29.63,19.68-43.5,29.44-18.78,13.22-34.31,32.83-59.66,30.52-2.59-.24-8.8-2.56-9.61-2.52s-5.32,3.53-5.75,4.47c-2.24,4.94.15,23.5.48,29.74,8.4-10.61,16.47-18.41,28.74-24.51,4.97-2.47,12.27-4.07,17.08-6.93,1.6-.95,2.2-3.1,2.78-3.18,1.07-.14,2.71,1.01,4.41.81,5.16-.6,10.37-3.38,16.04-4.13,7.61-1.01,23.58-1.15,30.75.97,7.89,2.33,20.51,10.05,20.19,19.23-1,28.23-36.99,44.52-59.41,53.39-.1,4.55,3.02,4.08,6.57,5.13-.57,2.03-5.53,3.14-5.74,3.41-.27.35.89,3.08.95,4.27,1.32,27.57-27.26,62.13-57.11,58.07-2.69-.37-7.77-3-8.56-2.95-.31.02-4.06,4.29-4.22,4.56-2.67,4.67-2.36,21.29-3.06,27.64-1.66,15.12-5.08,29.62-2.64,44.87.33,2.06,3.28,5.99.23,7.43-1.65.78-1.2-1.62-2.1-1.88-3.38-.97-5.87.66-6.1-5.33-.14-3.74,3.82-15.37,4.62-20.37,1.4-8.81,1.43-17.8,2.17-26.62.69-8.2,3.12-16.33,1.95-25.01-1.29-9.6-9.44-.23-13.57,1.87-7.45,3.8-16.98,4.39-25.26,3.37-7.67-.95-26.12-11.81-31.89-17.53s-17.25-23.82-16.74-31.83c.59-9.31,24.37-15.84,32.19-15.86,9.46-.02,41.21,7.7,46.45,15.54.18.26-.89,1.53-.77,1.69.65.87,6.28,1.58,6.18,4.88l8.92-15.07c-.64-4.29,1.78-17.95.05-20.73-3.32-5.36-11.36,1.39-16.19,2.68-4.4,1.17-8.34,1.71-12.92,1.44-8.37-.49-26.7-7.56-35.02-11.03-18.66-7.79-41.97-24.03-49.93-43.15-3.83-9.2-5.56-14.48,4.13-19.89,7.89-4.4,15.52-4.15,24.21-4.59,1.08-.05,2.63.62,2.37-.95-2.21-.95-5.95-1.87-7.87-2.97-13.79-7.9-27.17-19.13-35.13-33.21-3.85-6.81-9.8-15.31-2.73-22.03ZM243.8,217.98c-1.77-.28-5.04-3.68-6.05-3.73s-2.73,1.85-4.12,2.3c-10.9,3.52-20.85,2.69-31.87,2.68l25.58,14.26c2.17,1.58,8.68,9.03,9.96,9.76,1.03.59,1.93-.23,2.86-.52-1.08,5.93,4.12,9.83,5.28,15.37,2.01-.03-1.16-36.78-1.63-40.13ZM247.84,320.48v-31.19c0-.79-4.79-6.22-5.28-6.22-4.88,6.94-13.27,6.94-20.64,9.1,5.18.28,1.49,2.6,1.98,3.29.15.21,1.82.3,2.39.96,4.37,5.13,14.9,13.57,17.45,17.6,1.04,1.65.08,6.77,4.1,6.46ZM263.96,353.36c-.24-.28-6.09-3.61-6.46-3.69s-6.17,2.13-6.37,2.41c-.92,1.29-1.19,12.87-1.37,15.42,5.36-4.63,11.36-8.44,17.76-11.51,1.29-2.31-3.03.42-3.36,0-.19-.25.39-1.92-.2-2.63Z"/>
</svg>