<?xml version="1.0" encoding="UTF-8"?>
<svg id="Capa_1" data-name="Capa 1" xmlns="http://www.w3.org/2000/svg" viewBox="0 0 500 517">
  <path d="M350.9,40.4c.02.32.85,1.09.93,2.13.23,2.95-2.49,4.67,2.63,7.42.87.47,2.68-.33,2.82-.2.95.9,2.71,11.42,4.61,14.37,1.87,2.91,4.8,2.44,5.3,3.62,1.64,3.85,1.75,13.18,2.15,17.68,5.37-1.43,4.75,1.3,6.5,2.54.67.47,2.25-.23,2.75.62,1.94,3.31,1.52,13.75,3.95,17.82,1.25,2.1,3.36,1.67,4.75,2.85,6.21,5.24-1.48,21.37,10.35,24.61l-.65,14.55c10.73-.91,11.65,9.94,11.42,18.38l6.59.47,1.02,7.12,2.15-3.24c-.42,4.22.49,12.68-3.11,14.57l.96,6.03,3.23-3.25-1.07,6.5c6.32-1.9,4.59,7.29,9.75,2.18l1.24,10.16c10.88,4.79,4.32,9.79,4.22,16.57-.04,2.48,1.93,3.48,2.04,5.22.13,1.95-1.78,5.13-1.06,7.55l3.94,1.65-.61,16.36-6.5-3.24v4.32s3.32-.61,3.32-.61l1.56,2.8,1.62-2.18c-2.2,5.88.55,12.1-.44,17.4-.77,4.11-4.32,11.56-8.26,13.53l.8,2.71,3.57,1.65-.14,1.97c-1.55,2.42-5.43,5.26-6.13,8.04s.57,4.84.29,6.95c-.43,3.26-4.72,9.96-5.71,13.62-.84,3.1.37,7.19-1.52,10.41-1.55,2.63-4.01,2.09-4.95,3.19-.36.43-4.35,9.76-4.45,10.31-.6,3.34,2.17,4.18,1.24,6.41-1.85,4.47-9.76,7.54-12.28,11.72-1.34,2.22-1.22,4.65-2.72,7.05-2.6,4.15-8.53,6.02-10.91,8.62-2.81,3.07-4.75,11.71-11.63,9.91-1.08-.28-3.87-7.08-10.05-1.16-.97,6.3,8.04,7.37,5.49,13-1.77,3.9-19.48,21.54-22.78,21.46-.92-.02-2.01-2.32-2.68-1.89-.4.26-4.17,7.83-4.68,8.36-.46.47-9.98,4.44-11.15,4.6-4.88.67-9.17-1.59-14.05-1.07-7.77.84-14.31,1.98-22.75,1.11-15.1-1.57-47.59-10.42-55.52-24.19-.98-1.69-.31-4.39-1.72-5.91-.69-.75-3.52-1.42-5.2-2.92-2.35-2.11-6.88-10.76-9.06-10.3-10.4,13.33-19.19,27.86-32.11,39.01-.76-3.01.46-2.5,1.36-3.57,4.55-5.4,9.95-10.07,14.27-16.05,3.6-4.99,8.98-12.55,9.32-18.36l2.15,1.1c-2.66-5.6,1.93-6.89,2.99-10.58,2.44-8.46,3.79-12.22,6.79-20.33,24.43-65.9,46.54-132.9,70.19-198.89,4.98-13.89,11.05-27.38,15.5-41.44l-13.86,31.15c-10.7,33.65-24.13,65.99-36.6,99.02-.53,1.4-.55,2.9-.53,4.36-3.46-2.48-4.74-7.26-7.06-10.86-.36-.56-.99-4.22-2.68-2.15-1.18,1.44,4.77,10.51,5.69,12.26.46.88-.22,2.08.09,2.72.09.18,3.36.13,1.77,2.34-.09.12-1.88-.33-2.15.73-1.33,5.26-1.57,10.8-3.55,16.88-6.93,21.2-14.79,43.11-22.74,64.05-3.57,9.4-6.85,18.35-12.74,26.32l3.25.55-1.64,2.15-2.59-1.79c-.66-1.69.68-3.88.43-5.26-5.45-30.44-13.78-56.1-17.91-87.87-2.91-22.36-10.08-46.83-10.84-68.38-.05-1.31.81-4.04-1.07-3.78-2.87,17.85,4.78,35.89,7.43,53.85,1.73,11.76.77,23.24,1.74,33.48,1.38,14.45,10.93,39.77,14.37,55.66,1.75,8.11,3.7,17.65,3.56,25.7l2.18-.53-6.19,11.97c-9.43-.85-18.87-1.49-27.91-4.44-12.83-4.19-33.43-18.71-44.41-27.24-3.19-2.48-8.13-6.66-5.02-10.65-7.1,1.17-7.98-2.38-11.66-5.47-1.3-1.09-4.04-1.67-4.61-2.15-1.2-1.02,4.4-1.17,2.15-3.24-.39-.35-1.97.8-2.7.65-2.83-.6-9.45-21.26-12.23-25.31-3.02-4.4-9.41-7.44-8.29-14.42l-4.98-1.07c-.48-2.41,3-5.16,2.88-7.04-.06-.89-2.78-3.91-3.4-5.99-.9-3,1.2-8.68-2.76-7.06-4.04-3.7-.02-6.62.03-8.66.02-.71-4.67-10.52-5.4-13.04-.94-3.25,3.04,1.1,2.16-2.15-.52-1.9-2.03-3.68-2.15-5.47-.19-2.83,1.72-5.75,1-9.65-.39-2.12-3.35-4.59-1.93-6.93.32-.53,2.99-.91,3.61-2.27.49-1.06-1.02-3.62-.39-5.81.46-1.59,2.91-2.38,3.14-4.62.28-2.72-2.71-4.96-2.1-7.35.58-2.24,4.15-2.82,4.79-3.95s-1.12-3.56-.57-4.36c.25-.37,3.66-.47,4.17-1.3.24-.39,1.79-7.64,1.48-9.06l1.93-.54-2.49-1.05-.74-2.17c7.53-2.66,3.61-25.59,16.24-17.38.65-1.98-1.17-4.43-1.09-5.88.03-.62,1.78-.45,2.11-1.43,2.2-6.46-2.36-7.82-2.03-9.36l5.9-6.09c1.73,2.23,1.39,3.96,4.88,3.24-1.16-3.94,2.56-5.48,3.53-7.88,1.42-3.53,3.82-11.46,2.99-14.91l2.77.97,2.08-2.1,5.99,2.2c-2.15-4.67.72-5.16,2.19-8.66l3.22,2.16.55-2.16,2.7,2.16,2.24-6.5,4.28,1.07-2.15-3.24,7.05-4c2.42-.15,4.57,5.16,8.6,3.94,2.13-.64.55-6.79,2.94-8.57l2.58.87c1.83-3.99,9.91-1.39,12.99,1.23,2.39-1.01,2.22-4.41,3.06-5.16.55-.49,2.15-.05,2.62-.49.94-.86.51-4.57,2.48-5.79.29-.18,6.46-.36,6.81-.27,3.13.82,3.83,6.77,6.18,5.15.15-.1-.33-1.11.58-1.81,2.91-2.24,2.01-2.49,2.92-3.34.36-.33,8.06-1.97,9.56-2.4l-1.07-2.57,2.75-2.9c1.5.06,6.54,3.22,8.16,3.82,1.2.45,2.12-.37,2.96-.15.29.08-.41,3.41,4.42.06,2.95-2.04,4.24-6.48,4.56-6.77.78-.71,4.06.25,5.69-.16,1.02-.25.15-3.73,3.97-1.08v-5.42s4.2-.14,4.2-.14l1.24-5.29c6.89-.06,4.84,10.36,14.1,6.51l-.97-4.18c3.26-.19,4.63-6.32,7.92-5.48,1,.25,3.21,5.41,6.14,4.85,4.36-.83,6.2-9.98,10.27-11.18l5.39,4.08c2.74-4.64,5.98-7.02,11.72-5.47,1.41.38,2.04,5.27,5.09,4.35l2.73-5.42,2.15,2.16c2.81-4.16,6.27-9.17,11.4-9.77l-3.25-1.09c1.65-2.99,6.18-3.6,8.67-1.08-2.75-5.23,2.4-9.23,3.05-12.71.75-4.06-.42-3.54,1.76-9.11.43-1.09-.26-2.76.09-3.19,1.08-1.34,5.21-.88,4.91-4.28l2.16,5.42,1.08-5.41c1.1-.46,2.16,2.53,2.16,2.71,0,7.19-.34,14.53,0,21.7ZM343.3,267.7l-60.74,59.14-54.64,41.92-1.78,4.18c17.46-13.47,34.9-26.97,52.59-40.17,4.85-3.62,2.98-6.41,10.33-3.24l-1.7-4.32c14.09-13.39,26.42-29.09,42.89-39.7l13.06-17.81ZM320.52,376.21l-18.68,2.46-9.52,2.94c6.65-.73,14.37-1.23,20.87-2.44,1.86-.35,6.58-1.01,7.33-2.96Z"/>
  <path d="M142.24,470.25c-3.02,3.18-23.35,13.77-27.24,13.39-1.32-1.86-1.55-3.63-3.31-5.49-2.67-2.82-.69,1.52-2.72,1.1l-1.09-2.71c7.34-2.48,16.59-2.02,24.24-1.58,2.69-3.88,8.14-3.92,11.02-8.71,1.45.68-.23,3.29-.9,4Z"/>
</svg>