<?xml version="1.0" encoding="UTF-8"?>
<svg id="Capa_1" data-name="Capa 1" xmlns="http://www.w3.org/2000/svg" viewBox="0 0 500 517">
  <path d="M248.85,165.57c-.59.1-1.3-.05-1.92,0,.12-2.4-.21-4.86-.04-7.26,2.6-38.59,5.54-76.52,5.82-115.32l4.79-27.41-1.9,19.22,2.89-3.84,2.86,1.9c-3.37.1-2.06,6.17-3.66,9.34-.87,1.72-2.28,2.54-3.06,4.13,3.47.47,4.79-2.37,6.24-4.79,4.1,6.05,3.45,13.02-1.44,18.25,4.22.06,4.93-3.1,4.82-6.72,1.6-.27.66,1.39,1.29,2.56.21.39,1.54.36,1.58.89.29,4.1-4.3,11.88-6.89,15.17-.84,1.07-7.67,6.26-6.55,7.34,7.07-4.04,14.41-12.74,14.42-21.15,1.61.05,1.57,4.72,1.45,5.67-.2,1.7-1.92,2.94-1.46,4.89l2.89-5.76,1.43,2.87,1.46-3.83c1.71-.03,1.06,4.22.94,5.27-.57,4.99-4.28,11.71-7.69,15.39-2.12,2.29-1.43.77-3.82-.47-.36,2.4,0,2.54,1.96,3.38l-13.5,17.77c1.72.36,2.33-.92,3.38-1.9,8.58-7.93,16.54-21.5,22.1-31.74,2.35,2.6.44,4.51-.48,7.16l2.87,1.49,1.92-6.72c-.55,4.43,3.07,3.8,1.95,9.16-.6,2.89-4.8,1.58-1.94,6.68l-2.88.49c1.53,3.99-1.26,7.59-5.77,7.7,3.13,5.37.84,8.65-3.84,3.84l-.02,6.74-2.87-.97c1.1,3.56-1.2,8.08-3.04,10.88-3.43,5.21-7.55,8.35-11.22,12.84-.94,1.15-2.26,2.59-2.08,4.16,10.39-8.75,18.85-19.8,25.76-31.43,4.99-8.39,10.51-16.93,9.81-27.21,1.68-.22.89,2.18.95,3.34.31,6.81-.97,9.03-3.83,14.92,4.44-.16,5.52-5.4,6.66-6.26.49-.37,2.03.48,2.92.04,1.73-.86,1.21-3.34,2.9-3.38-1.4,4.55,1.15,8.8-.65,13.25-.4.99-1.77.95-2.15,1.91-1.31,3.32-.43,10.3-5.38,6.99l-.97.91c.69,4.07-3.34,4.05,1.53,6.32l-2,5.22-1.92-5.77c-6.21,4.77-.51,4.84-.04,6.34.5,1.6-1.16,4.1-2.37,5.19-1.8.9-1.54-4.08-3.35-1.91-1.83,2.21,3.17,3.06,1.9,4.79-.68-.04-1.54.07-1.92.68-1.51,2.44-5.42,10.43-7.15,11.97-1.08.96-2.29-.11-3.42-.14-.03,2.29-.04,5.41-1.29,7.39-3.56,5.64-12.14,11.99-16.06,17.13-.7.91-.59,1.74-.92,2.41,5.72-.96,19.66-20.68,23.47-26.04,7.48-10.53,24.12-35.02,24.52-47.59.06-1.91-2.3-6.32.07-7.12,1.66,2.8.63,7.87,1.16,10.11.15.62,1.78.43,1.73.9-.27,2.56-4.96,6.92,1.92,8.21l.07-2.77,5.69-1.08c.44,4.62-.08,8.31-1.93,12.5l-2.86-.96-.02,4.81c-.78-.44-1.61-.66-2.41-.1-5.17,3.61-11.62,13.66-10.09,20.29-4.74-1.68-5.22,6.02-6.94,8.95-.64,1.1-1.82,1.3-2.31,1.97-1.24,1.71-1.23,3.7-4.14,4.93l1.43,2.41-5.33,3.38,1.98,1.93-2.46,6.21-3.36-1.9.94,3.84-2.87-.95.75,5.52-18.06,18.99-1.91,3.37c23.5-18.86,40.59-45.74,54.8-72.1l1.9,2.87c1.58-6.19,8.73-1.45,8.68-9.6,3.34,3.28,3.27.78,6.72,0-1.94,2.8.15,5.18-.03,8.05-.2,3.31-3.47,6.51-2.87,10.21l-3.84-.95c4.13,4.92-1.09,6.71-1.94,11.54l-2.86-.98c.48,6.17-5.16,9.9-6.82,15.33l-1.82-.91c-10.2,20.23-29.09,36.31-44.18,52.7-.99,1.07-8.59,8.98-7.76,9.8,3.5-1.48,6.05-4.52,8.67-7.18,17.03-17.26,62.58-66.99,64.92-89.87.23-2.28-.85-4.47-.52-6.77l1.99,6.66,2.8.56-2.87,10.07,2.39-4.8,2.4,7.28,5.49-1.36,2.15,1.34c-1.29,3.35-.71,6.83-1.14,10.28-.37,2.96-3.38,6.32.26,6.97l-.03,2.42-1.86-.92c-3.35,4.15,3.85,2.64,2.82,5.23-1,2.51-4.07,1.12-4.8,3.37,2.78.4,4.75-.61,6.23-2.9l1.45-10.55,1.06,7.61,4.71-.88c.47,6.17,0,12.53-4.8,16.9l-3.84-1.51,2.87,2.9c.31,2.88-3.88,2.15-2.88,5.75l-4.8-.96c-1,.96,4.16,3.9-.09,7.13-2.05,1.56-4.63.39-3.77,5.36l-5.76-2.88c-.95.94,5.6,6.19.97,7.68.15-2.29-.86-2.08-2.89-1.91l.49,6.74c-3.65,2.83-2.42-1.66-2.61-1.8-.66-.49-3.17.47-2.72-2.05-4.75,2.11-2.61,6.51,1.93,4.79,1.23,2.84.32,4.95-2.86,3.85l.95,2.87c-2.56,1.26-3.49-5.13-4.32-4.79-3.82,3.27,1.6,3.93,1.44,6.72h-2.89s.96,2.88.96,2.88l-3.84-.95c3.45,3.38.2,4.95-3.85,4.81l1.92,2.87-3.84-.95c.59,4.21-1.46,4.37-2.55,6.1-1.25,2-1.63,5.55-5.13,5.43l-3.86-3.83,3.83,5.28-4.81,5.29-4.78-2.88,2.87,5.75c-3.2.42-4.83,3.95-5.83,6.7l-2.81-.91c-.23.12.65,1.31.43,2-1.2,3.79-18.33,18.4-22.21,22.37l-8.02,10.24c5.14-3.07,8.54-8.16,12.46-12.04,25.56-25.27,56.61-56.24,76.37-86.11,6.28-9.48,10.56-16.9,9.69-28.75,3.59,2.08.03,13.78.49,14.42l3.81.47-4.71,8.78,1.85,3.24c-1.03.83-6.78-1.78-5.76,1.92l6.78-1.38,2.82-12.07v9.6c2.9-.03,5.11-1.8,4.83-4.8,4.69,2.69,2.73,10.25,3.26,13.98.21,1.44,2.47,1.8,2.52,3.8.01.52-1.53.26-2.12,1.78-.85,2.22-.85,4.99-.78,7.35l1.43-1.93,2.9,2.98,4.31-2.01c.42,3.58-1.28,6.94-1.64,10.36-.28,2.63.68,7.82.61,8.26-.22,1.39-5.53,3.94-1.45,7.43l4.3,1.01.12,2.74,2.87-1.93c.65.82-1.77,4.63-1.5,6.28.19,1.17,2.07,1.66,1.5,3.33l-2.86-1.92c-.2,2.48-2.06,4.72-2.01,7.25.04,2.08,2.53,4.21,1.93,5.18-.05.08-1.42-.02-1.86.73-1.01,1.76-1.24,3.62-2.02,5.3-.46.99-3.04,1.21-1.82,4.6,1.63.44.45-1.9,1.49-1.98,2.23-.16,6.14,3.33,9.07,1.02-.2,3.37.69,7.16-.71,10.33-.62,1.4-2.71,2.62-2.91,3.72-.22,1.25,1.15,2.96.66,4.54-.44,1.41-2.72,1.61-3.29,2.56-.9,1.5-.18,3.52-.68,5.09s-3.03,2.54-2.69,4.03l7.68,2.89c-1.23,1.83-1.62,4.06-2.59,6.02-.48.96-1.65,1.1-1.88,1.51-1.17,2.09-.8,4.95-3.96,6.89,4.09,3.76-1.33,4.53-2.51,7.2-.34.77.49,2.09-.1,2.9-.55.76-2.45.77-2.48,1.51-.13,3.48,5.79,5.01,4.5,9.11-1.01,3.2-7.25,7.09-7.38,11.48l-1.85-.94c3.12,6.8.53,4.53-2.95,8.14-.86.89-.6,2.59-1.06,3.21-.27.37-6.17-.51-4.64,5.96l3.36-2.87,4.36,5.21c-.34,3.03-4.68,8.15-5.25,10.12-.37,1.28.79,2.83.29,3.71-.21.36-5.23,2.9-6.17,5.04-.67,1.52.44,3.06.02,3.84-.69,1.26-5.42,2.93-6.2,4.58-2.65,5.56,2.82,6.27,2.87,8.29-.14,2.5-2.59,4.45-3.36,6.37-.51,1.27.51,2.68,0,3.77-.94,2.01-5.02,2.5-5.88,3.87-.72,1.14,1.13,4.42-.9,4.8-1.72.32-2.77-1.84-2.43-3.36l1.96-.95-2.88-1.47,1.92-3.81-2.66.49.61,1.29-7.09,4.93c-3.43-6.68-8.9-3.28-2.42.03v1.89c-3.01.48-5.35,4.18-7.96,5.07-1.54.53-3.24-.45-3.55-.24-.1.07.97,1.36.05,2.35-1.94,2.1-6.85,3.03-8.7,5.82,2.46.38,6.23-1.97,8.36-3.18,5.53-3.16,10.47-7.8,16.15-10.77l-.48,3.85h2.89s-2.88,2.41-2.88,2.41l2.88.95c-4.19,3.03.3,5.65,3.85,6.27.35.46-4.98,8.97-5.77,10.08-1.24,1.75-4.65,3.85-5.32,5.35-.82,1.83.96,3.09-.84,4.76-2.71,2.52-10.91,6.84-14.57,6.64-1.72-.1-2.67-2.75-3.8-.88l.99,4.81c.72-2.96,2.5-1.47,4.54-2.15,1.42-.48,1.9-2.08,3.63-1.68-1.94,2.36,1.45,3.9.56,5.74-1.63,3.37-10.76,8.64-12.62,11.6-.88,1.4.56,3.15.1,3.87s-12.96,6.67-14.95,5.71c-.41,1.58,1.64.46,1.94,1.55.19.7.18,2.52-.18,3.11-5.8,1.27-9.08,7.16-15.22,5.92l.96,2.87c-4.51.3-11.42.82-15.65,1.97-.79.22-.65,1.69-1.35,1.86-7.83,1.87-10.36-2.66-14.31-2.76-.44-.01-.33,1.72-1.01,1.87-2.53.55-8.78-2.61-10.46-4.84l-9.12,17.29c3.9-14.27,10.55-27.71,14.13-42.11,13.79-55.45,14.22-130.22,16.64-188.14,1.32-31.57.99-63.7,2.86-95.2.4-6.66-1.16-9.54,1.93-15.85ZM247.9,250.18c.26.25,4.58-3.19,5.3-3.82,21.38-18.76,45.58-46.33,62.38-69.33,7.82-10.71,17.82-23.68,17.86-37.41-1.25-.26-1.55,1.79-1.67,2.63-.8,5.24-.6,12.56-7.48,12.66l-.46,3.93-2.87-1.92c1.74,4.61-2.3,4.97-2.75,6.39-.4,1.24.24,3.45-.29,4.05-.79.91-5.67.96-4.67,6.87-2.38,1.04-1.8-1.78-2.39-1.95-3.84-1.12-3.34,8.07-9.15,6.25l-.94.99c2.89,2.26,1.79,5.91,1.9,9.13l-2.9-.46v-4.34s-3.51,4.32-3.51,4.32l3.52,5.28-3.84-.96-.02,2.87-5.75-.94c-1.39,1.27,4.14,3.66,3.74,6.12-.49,3.01-4.2,1.5-4.51,1.7-1.01.64-3.7,6.82-3.09,8.52l-2.87-.95-.08,4.73-3.79.07c1.98,4.9-3.9,3.58-5.27,7.67l-3.86-1.91,2.4,3.37-24.97,26.44ZM283.13,274.84c16.47-16.24,33.92-34.9,48.9-52.53,5.04-5.93,12.24-13.89,16.23-20.31.74-1.2,1.87-2.11,1.54-3.74l-9.62,12.49-5.28-2.88c-.5,1.15,1.25,1.9,1.47,3.42.68,4.6-2.76,5.61-5.21,8.19-1.5,1.58-1.16,4.33-4.42,4.74l-.02-2.9c-3.6.84-.52,4.87-.96,5.76-5.84-1.34-2.46,1.35-3.28,2.88-.68,1.27-2.56,1.42-3.12,2.14-.16.21-1.07,3.39-2.33,4.5l-4.7-2.79c-.56,1.86,1.77,2.2,1.42,3.8-.07.3-2.14,4.29-2.34,4.44l-3.9-.55c.83,2.57,1.05,4.24-.96,6.35-1.28,1.34-2.61.39-2.74.55-.77.98-.79,4.43-3.52,5.59l-1.44-1.45c-1.11,1.42-.82,3.3-1.89,4.85-2.48,3.6-12.13,12.99-15.86,16.83-11.03,11.36-23.43,21.5-35.12,32.18l.47,1.42c12.68-10.53,24.96-21.46,36.68-33.02ZM320.36,261.12c6.91-6.67,14.3-12.96,20.82-20.05,6.44-7.02,16.39-18.12,20.93-26.18.48-.85,2.11-2.42.68-3.16l-11.05,14.93-3.86-1.47c3.72,3.13.07,7.64-3.84,5.75v4.82s-1.92-.98-1.92-.98v2.91s-2.88-.97-2.88-.97c1.63,4.42-3.6,7.54-6.26,10.56l-4.32-3.82,1.48,5.81c-4.61.56-2.04,3.62-5.94,5.65l-4.2-1.84,2.86,3.36c-2.25,2.07-3.24,4.96-6.71,3.37,2.37,4.37-2.37,4.24-4.52,6.06-2.26,1.91-1.91,5.92-7.02,3.56,1.67,2.31.43,5.14-1.94,6.31-2.14,1.05-2.51-1.89-4.79-1.5,4.22,5.9-1.53,4.67-1.77,4.98-1.27,1.62,0,5.35-4.98,4.12.14,5.61-3.12,4.36-5.45,6.57-8.24,7.84-15.84,16.5-24.31,24.23-1.63,1.49-18.52,14.67-17.32,15.84,2.77-.92,5.87-3.85,8.15-5.78,23.16-19.62,46.29-41.92,68.17-63.06ZM337.7,272.69c4.14-3.99,8.77-7.57,12.59-11.93l11.99-15.4-29.31,29.79-5.29-3.82,3.83,4.32c-2.83,3.31-6.45,5.74-9.6,8.66-3.75,3.48-9.3,8.7-14.42,13.32-18.53,16.69-40.91,36.4-62.22,53.28-1.15.91-2.62,1.09-2.18,3.09.8.77,3.78-1.9,4.68-2.52,6.03-4.12,12.79-9.55,18.4-14.29,23.64-19.97,49.27-43.04,71.53-64.51ZM363.25,277.1l-20.41,18.3-.89,1.77-2.72-.86c.28,2.79-2.85,5.17-4.92,7.08-6.11,5.61-14.27,10.45-20.58,16h-1.42c.52-2.58-.67-3.06-2.88-3.83.11,3.4,3.26,3.57.54,6.78-1.12,1.32-5.06,4.23-6.82,5.74-7.36,6.34-15.31,13.68-23.08,20.14-11.25,9.35-24.78,17.79-35.52,26.97-.82.7-4.38,3.73-3.38,4.78,22.33-14.58,41.54-33.08,62.03-49.97,17.98-14.81,38.72-28.67,54.92-45.55.79-.82,5.8-6.66,5.14-7.35ZM346.36,318.85c5.05-4.12,10.22-7.8,14.5-12.9.64-.76,2.52-1.93.96-2.89-3.33,2.96-6.25,6.76-9.65,9.58-11.53,9.58-26.27,20.28-37.63,28.23-1.58,1.1-1.29,4.85-5.12,2.57l.88,2.79c-2.83.8-3.44,3.6-6.65,2.02,1.96,3.52-3.49,5.56-6.29,7.73-13.22,10.27-27.55,21.86-42.05,31.91-3.22,2.23-7.11,3.9-10.22,6.12-1.68,1.2-4.94,2.87-4.89,5.2,13.71-8.27,27.02-17.36,39.86-26.95,22.59-16.87,44.45-35.57,66.29-53.4ZM239.24,419.37c7.74-3.28,15.55-7.93,22.61-12.47,28.11-18.05,65.89-45.8,89.76-68.87.79-.76,5.65-5.37,4.91-6.14l-9.14,7.68-1.9-1.91-2.89,5.76-1.91-4.8c-3.43,2.04,1.64,4.41.35,6.6l-3.25,2.05c-1.06-4.75-5.53.74-3.36,3.83l-4.81-.94,1.51,2.87c-20.05,16.13-40.43,32.5-61.76,46.95-9.87,6.68-21.05,11.89-30.12,19.38ZM343.07,368.44l-38.7,28.17c-5.83,3.87-12.47,9.52-19.45,14.14-8.17,5.41-17.25,10.75-25.81,15.53-7.75,4.32-17.06,7.55-23.72,13.29l30.45-15.21c22.88-15.16,50.13-31.52,70.95-49.22,2.27-1.93,4.53-4.27,6.28-6.69ZM310.37,413.61c1.37-3.07-.82-5.42-.47-8.64l-6.01,3.31.73,4.39c2.44-1.71,3.39.7,5.76.94ZM279.62,433.81c-9.51,3.94-18.72,8.58-28.19,12.66-5.75,2.48-11.4,3.75-17.03,7.05-1.25.73-2.42-.17-1.89,2.39,15.75-7.09,33.22-11.51,47.1-22.1ZM298.84,443.43l-69.22,26.9c21.02-5.77,41.66-12.22,61.22-21.93,2.41-1.2,6.08-3.15,8-4.97ZM227.71,480.9c3.94-.11,7.94.27,11.89-.11,11.55-1.11,41.47-7.76,51.11-13.3,1.38-.79,9.09-6.53,9.08-7.24l-1.89-1.43c.17,2.43-2.64,2.52-4.35,3.82-16.16,12.27-41.29,14.39-61.4,16.48-.98.1-4.52.38-4.44,1.8ZM233.95,489.57c4.79.42,10.06-.31,14.9,0l-22.58-2.9c-1.5.91.77,1.33,1.4,1.47,1.58.36,5.09,1.32,6.28,1.43Z"/>
  <path d="M159.76,288.31c.95,1.17,3.45,2.33,4.98,4.16,21.71,26.09,45.13,50.8,69.49,74.71l-.77,15.67-13.45-10.57c3.27,5.51,11.92,9.31,12.56,15.8.31,3.19-.34,6.88-.06,10.15l-8.65-3.83c6.55,6.7,9.64,9.06,6.72,19.21l-7.69-3.83c7.12,6.33,8.26,10.72,5.76,20.19l-2.87-.97c.06,2.2,1.74,2.75,1.99,5.26.35,3.44-1.35,6.69-1.05,10.12-1.13.44-2.23-4.78-3.83-2.88-.83.99,2.67,3.92,2.75,6.19.21,5.59-4.19,18-6.13,23.6-.49-6.66-6.25-10.92-8.58-15.45-1.07-2.09-1.09-4.96-2.27-7.34-1.05-2.1-4.87-4.61-4.01-7.35.29-.95,3.14-.13,1.41-3.5-2.13-4.14-7.76-2.44-6.25-7.71l-3.83-.48,6.72-2.38-9.62-1.94.97-2.87-3.31,1.02-.54-1.98-2.86,1.91,2.87-4.8c-3.1,1.91-9.22-6.01-5.27-5.81,3.35.17,11.38,6.17,14.79,8.3.82.51,2.09,2.4,2.98.87l-31.26-22.59c-1.48-2.02,4.43-1.16,3.37-3.36-.61-1.27-4.5-2.49-5.32-4.37-.97-2.21,2.57-2.02-3.32-4.29,6.34.11,4.48-3.2-.87-3.46l-.11-3.15,1.93-1.08-15.37-10.12c.37-2.75,4.47-.77,5.5-1.17,1.7-3.31,4.57.03,2.17-5.55l-2.79.95c-1.28-4.1-3.83-7.65-7.64-9.75l1.78-4.64c-4.5,3.86-10.06-12.66-9.6-13.46l3.66.17,1.13,1.74.12-1.77,1.81.82v-5.77s-2.87.97-2.87.97c-1.77-3.37-1.28-6.97-1.91-9.91-.15-.71-3.62-2.07-4.75-4.21-.81-1.52-.11-2.92-.4-3.52-1.04-2.23-3.52-3.89-3.46-6.97l1.85.55c0-2.81,2.6-2.99,4.81-1.91-.02-4.78-2.5-7.42,2.41-10.56,12.75,16.09,27.26,30.67,41.81,45.17l-10.07-12.51c-12.86-13.38-26.66-27.21-37.42-42.37-1.96-2.76-6.21-9.06-7.28-11.95-.85-2.28,2.51.22,2.52-2.34,1.56.78,2.13,1.05,3.22-.53l-1.89-1.92c0-1.26,8.33-2.45,9.57-1.95s11.33,14.05,13.34,16.52c1.28,1.58,1.56,3.8,2.39,4.82ZM147.34,320.91c-1.08-1.04-1.16-2.95-3.28-2.47,1.01,2.55,3.65,3.87,1.93,6.71,4.83-1.92,7.34,5.78,11.52,7.7.42-1.8-1-2.29-1.91-3.37-2.28-2.71-5.67-6.07-8.26-8.58ZM202.7,356.88c-3.83-4.16-7.67-8.85-12.02-12.49-1.08-.9-1.56-2.33-3.36-1.92l5.16,6.35,10.21,8.05ZM212.32,383.8c-3.19-3.88-7.22-7.38-11.08-10.54-2-1.64-4.73-4.21-7.19-4.82l5.31,5.73,12.95,9.63ZM206.55,396.3c-1.91-2.59-4.34-5.05-6.72-7.21-2.24-2.03-5.86-5.15-8.67-6.23,3.46,3.97,7.99,8.13,12.01,11.53,1.08.91,1.57,2.33,3.37,1.91ZM201.74,407.84c-5.47-5.52-12.19-12.26-19.23-15.36l4.35,4.78,14.88,10.59Z"/>
  <path d="M147.9,140.58c-.9,6.8,1.5,12.76,2.9,19.22,1.97-.42.9-3.69,3.83-1.92-1.29-4.29-.81-6.42,2.41-9.6l1.99,2.94,4.25-2.48c-5.3.57-8.46-6.8-2.62-5.98,4.65.66,3.16,2.64,5.5,5.99l-1.91,1.42c4.03.67,4.35,4.69,2.83,7.96-.51,1.1-2.24.18-1.88,1.66l5.6.17,4.02,11.38,1.9-.98c1.95,6.28,7.04,12.29,10.34,18.05,2.48,4.34,1.89,4.86,5.12,9.26,4.39,5.97,8.86,14.63,13.43,21.01,3.62,5.06,13.79,15.27,15.88,19.98.53,1.19-.61,2.7-.51,2.8.15.15,2.37.18,3.93,1.4,3.21,2.51,8.11,12.42,8.74,12.91.49.37,2.05.14,2.59.69,1.64,1.66,2.09,3.77,4.71,4.47l.21,10.86-2.89-.47c4.09,3.44,1.42,4.34,1.49,7.53.08,3.54.82,7.14.43,10.72-1.67.43-1.92-.69-2.89-1.43-13.41-10.29-33.82-40.23-44.04-54.98-13.33-19.26-46.14-67.5-47.27-89.25-.11-2.03-.85-3.92,1.9-3.34Z"/>
  <path d="M130.98,198.86c.24.43,2.78,4.07,3,4.2,2.06,1.18.87-2.92,3.02-3.71,8.38-.46,11.1.52,13.79,8.99l-3.84,2.42,6.48.23c2.97,5.16,5.97,10.39,9.05,15.49,1.04,1.72,3.26,3.05,3.98,4.78.76,1.83-.4,3.38-.27,3.49.23.19,2.01-.06,3.3,1.03,2.19,1.84,16.24,21.84,18.66,25.59,1.53,2.36.01,5.26,3.01,3.23l-.95,3.85,2.86-.56c13.36,18.32,27.84,35.85,43.97,51.75l-.7,17.07c-2.56,2.25-27.88-22.39-30.78-25.45-26.33-27.77-57.17-70.84-74.98-104.62-.34-.64-1.69-.71-1.73-.82-.19-.51.88-1.93.69-3.09-.54-3.41-1.47-6.79-1.82-10.23,2.37.71,2.31,4.66,3.25,6.37Z"/>
  <path d="M138.98,170.81c3.85,2.49.62,4.52,1.24,5.34,4.52-3.46,9.94-.29,15.18-.76l5.04,8.9c-2.87,1.05-1.27,4.88-5.36,3.54l-.45,2.73,7.67-3.84,9.63,16.83-1.91,1.42c4.79.04,6.75,4.38,6.22,8.69.5.98,2-.02,2.25.21.55.48,5.49,9.81,6.59,11.31.71.97,5.28,3.88,4.13,5.72-.25.4-3.66.36-2.84,2.93l3.83-1.92c-.18,3.46,4.27,5.23,6.21,8.72.72,1.29.27,3.21.58,3.74.06.1,1.3-.91,2.29,0,2.48,2.28,4,7.22,5.66,9.34,9.61,12.29,21.95,24.18,29.85,37.48,1.2,2.02,4.09,2.18,4.27,2.37,1.6,1.69-2.25,18.73-.79,21.99-.69.73-7.25-4.9-8.19-5.74-21.1-18.65-49.52-60.14-65.65-84.33-11.25-16.86-24.3-35.33-29.03-55.1-3.26,1.1,2.5,7.71-1.91,6.72v-10.57c1.62.5,1.71,2.54,3.36,3.91.63.53,1.7.07,2.14.36Z"/>
  <path d="M140.21,238.63c2.12,1.37,4.69-.23,6.11-.02.66.1.6,1.55.84,1.66.44.2,1.28-.62,1.5-.45.45.36,3.88,5.31,4.7,6.43,2.81,3.79,5.64,9.26,8.34,13.22,2.03,2.97,9.55,11.54,10.48,14.13.57,1.59.38,2.04-.25,3.51l2.93-.49c13.66,18.21,28.61,35.33,45.13,50.99,4.06,3.84,11.39,8,14.44,12.49,3.25,4.77.59,16.7-.02,22.58l-10.23-7.07c-29.17-34.48-76.53-74.66-95.24-115.79-1.26-2.78-3.54-7.09-2.69-9.81,1.84,2.13,3.66,3.85,2.41,6.72,7.19,1.08,2.88-8.3,3.92-9.53,7.56-3.29,9.15,2.46,12.35,7.97l-4.73,3.48Z"/>
  <path d="M177.68,125.17l-2.85,1.94,3.89-.51c1.65.95,5.65,13.38,6.93,16.12,2.3,4.9,9.24,15.7,9.32,20.35.02.94-1.18,2.26-.92,2.49l2.81-.91c.25,2.08,2.42,3.56,2.8,5.46.22,1.12-.84,2.79-.69,3.04.33.51,4.74,2.02,5.64,5.42l-3.83,4.29c2.57-.26,2.89-2.35,5.77-.95v4.8s.97-1.92.97-1.92c2.48.32.98,2.99,1.51,3.87,1.96,3.24,6.86,9.21,9.6,13.38,1.93,2.95,4.61,2.79,2.36,7.74,2.95-1.67,7.27,4.31,9.06,6.8,3.19,4.41,1.95,4.34,5.85,7.53.35.28,5.6,6.45,5.78,6.86.45,1,.55,13.88.49,15.88-.12,3.69-.98,7.32-1.01,11.01-22.71-23.31-42.89-51.65-58.8-80.11-8.5-15.21-17.14-31.35-20.01-48.71,1.65-.41.62,1.49,1.02,1.8.31.23,2.02-1.07,3.18-.77,1.07.27,2.53,4.77,5.4,3.77l.97-16.34c4.36-.8,4.77,4.4,4.77,7.67Z"/>
  <path d="M177.7,98.28v9.61s1.91-.97,1.91-.97l1,4.82,2.86-.56c2.09,3.05,4.48,6.72,7.21,9.26,1.7,1.58,4.9.39,4.35,5.71,3.35.7,1.81-3.48,3.83-3.84l4.82,12.06-1.91,1.86,3.81,1.5-1.89,4.76,2.87-.96-.95,3.35,2.93,1.05c5.6,11.91,12.01,25.29,19.72,35.92,3.63,5,11.5,11.77,14.33,17.43.33.66.7,7.26.53,7.96-.18.77-2,.54-1.98,1.12.04,1.25,1.7,2.47,2.02,4.77.66,4.78-1.84,4.5-1.83,4.79.04,3,1.1,6.97.81,10.14-20.3-22-37.09-49.3-50.14-76.28-6.6-13.65-16.85-35.24-16.97-50.19-.01-1.62.54-4.05,2.7-3.32Z"/>
  <path d="M194.05,96.34c4.65-2.25,6.89,6.72,9.24,10.47.74,1.18,2.67,1.5,3.52,3.22,1.58,3.19-.04,6.38,6.46,5.54l-.95,2.87,5.76.02-2.88,10.56,4.32-2.86c.84,0,5.78,8.9,6.65,10.56,4.13,7.93,11.25,19.18,14.9,27.68,1.61,3.76,5.65,10,1.09,12.33l.92,18.63-5.74-5.31c-21.7-28.05-37.99-62.32-44.85-97.24l1.55-8.01v11.52Z"/>
  <path d="M208.47,73.28c-1.8,7,5.72,7.1,4.81,12.51l1.93-3.85c2.09,1.85,3.12,1.55,5.75.97l-2.77,4.18,2.8,3.1-.99,3.28h4.81c-2.5,5.79-1.02,8.14,2.9,12.04l-1.96.93.03,2.41,2.69.2.39,2.5,2.69.2-.02,1.91-1.82.41.94,4.35,3.64.18c1.03.64.96,6.54,1.98,7.97.59.83,2.15.31,2.68.8.78.71,1.45,5.01,3.18,6.03l-1.93.94c6.37,3.03,2.73,5.42,2.88,9.61.17,4.71,4.37,10.7-.97,12.52l2.89,6.22c-1.75.36-2.4-.84-3.31-1.97-9.77-12.14-35.35-66.63-36.02-81.28-.04-.95.96-8.65,2.78-6.15Z"/>
  <path d="M221.93,71.36l.1,4.71h2.34s.45,3.94.45,3.94l1.91-.97c-.15,3.68,1.74,5.7,5.16,6.63,5.4-6.08,4.68,1.77,6.34,5.44,2.69,5.99,5.38,10.7,6.72,17.31.28,1.38.01,2.87.05,4.27l-3.38-.94-.46,1.89c8.86,1.28,1.86,13.61,5.77,18.27-1.57.38-1.96-.55-2.91-1.4-6.34-5.68-20.47-41.61-22.98-51.04-.25-.92-2.65-10.47.9-8.1Z"/>
  <path d="M243.49,70.01c1.69,2.74,3.57,5.19,6.37,6.84.14,2.99-1.12,5.74-1.64,8.57-.18,1,.74,2.39.46,3.52-.49,1.96-6.24,4.82.17,4.53l-.98,9.61c-3.71-4-6.58-9.76-8.81-14.73-2.19-4.89-7.81-18.75-8.25-23.48-.09-.99.09-5.02,1.68-5.04-.95,5.36.93,3.94,3.85,6.72.59-3.32-2.78-8.35.96-10.57.77,4.3,3.82,10.21,6.18,14.03Z"/>
  <path d="M248.23,55.69c.34.51,1.75-.08,1.58.75-.85,2.24-5.04-.76-3.83,1.91.57,1.27,3.2,2.31,3.66,4.06.54,2.07-.49,9.13.17,11.81-3.09-2.07-5.93-6.75-7.71-10.07-1.39-2.6-5.87-12.13-6.3-14.44-.1-.52.33-2.77,1.51-2.4l1.94,7.7c3.53-1.96,2.48,1.01,5.75,1.91l-2.49-4.28,1.52-8.21c1.71,3.04,2.5,8.71,4.2,11.25Z"/>
  <path d="M208.47,95.38c-5.31.83-2.21-4.77-6.6-6.19,2.38-4.06,1.79-8.51,1.8-13.02l4.8,19.21Z"/>
  <path d="M190.19,101.18c1.13,3.1,4.11,3.32,2.9,7.67l-5.66-2.55.87-4.54,1.9-.58Z"/>
  <path d="M142.13,265.55c-1.82.06-8.29.76-7.68-2.38.46-2.38,4.55.62,4.32-2.42l3.36,4.8Z"/>
</svg>