<?xml version="1.0" encoding="UTF-8"?>
<svg id="Capa_1" data-name="Capa 1" xmlns="http://www.w3.org/2000/svg" viewBox="0 0 500 517">
  <path d="M252,472.99c-10,3.32-18.89-3.07-26.42-9.07-6.19-4.93-17.59-13.62-12.29-21.89-12.47-.26-18.11-15.42-16.03-25.84-7.91-2.2-9.92-7.55-11.98-15.2-1.35-5-.14-14.92-.57-15.59-.19-.3-4.29-1.45-6.28-3.4-6.11-5.97-10.35-22.54-2.59-28.4-12.21-7.87-15.47-22.31-7.82-34.88-5.5-3.05-10.27-15.89-10.11-21.78.14-4.95,4.15-9.73,3.8-14.92l5.11-.06c-1.25-4.15-3.31-6.2-3.86-10.96-.73-6.3-.63-30.69,9.04-27.76-1.28-6.04-3.04-10.98-.96-17.06,1.41-4.13,5.14-12.14,10-10.04-.69-6.29-.35-17.17,2.48-22.64,1.39-2.68,4.98-4.52,5.24-5.42,1.89-6.54,1.17-19.11,9.04-22.29l-2.67-1.99c.55-5.15,5.1-8.18,7.1-12.28,4.7-9.66,4.02-9.01,10.31-18.09,3.07-4.44,2.45-13.26,11.08-10.2-.19-3.14,1.52-7.72,3.34-10.26,1.41-1.97,3.75-2.34,4.49-3.55,1.21-1.98.8-5.16,2.43-7.58,1.38-2.06,4.56-2.72,5.04-3.43.44-.66-.95-2.84.16-5.21,1.05-2.24,4.19-4.12,6.48-2.25-1.21-2.48,4.21-10.99,5.37-11.36.84-.27,2.7,1.32,4.12.92,2.61-.74,1.93-6.72,7.29-3.76l-2.59-15.48,3.9-.02-.7-10.39,4.55.07-2.57-5.15,5.15,2.57c-3.9-8.63,4.3-12.15-2.58-19.35l3.89-.02-2.47-3.11,4.4-8.49c6.28,3.99,4.07,10.12,4.98,14.59.57,2.82,2.78,5.25,2.92,9.49.22,6.85-3.84,18.71.85,25.9.51.78,3.32,1.74,4.81,3.57,3.11,3.82,3.11,7.26,5.12,10.37,1.59,2.45,5.51,4.29,6.81,7.39,1.4,3.35.81,9.38,2.23,11.67.83,1.35,2.77.85,3.7,1.77,4.09,4.05,5.93,7.7,7.9,13.22l-3.81,2.68c4.45,1.35,2.92,5,8.97,2.61,3.39,6.58,6.61,12.26,6.5,20.65l-2.56-1.31,1.2,4.62-2.49,3.13,9.01-2.58c2.1,1.57,1.04,13.92,5.17,12.93l-2.56,3.19c1.4,2.59,4.97,1.28,6.2,2.27.39.31.17,2.02.77,2.98.37.59,1.69.62,1.96,1.55.93,3.19.96,8.55.1,11.92l3.84-1.29c2.23,5,2.51,7.17-.06,12.2l2.75,1.42-1.36,4.44,6.43-2.57c.39,3.28,3.28,5.96,2.63,9.44-.15.82-2.19.79-2.86,2.69-1.21,3.44.68,7.44-1.04,11.09l6.52-.62c5.77,2.47.83,19.92-.08,25.14,11.97-.41,6.07,10.78,5.4,17.42-.15,1.52,1.29,3.47,1.13,5.01-.05.5-5.06,2.88-2.65,8.56h5.18c3.34,5.45-4.79,13.96-4.83,14.82-.06,1.02,2,2.88,2.09,5.11.27,6.59-3.61,10.31-6.4,15.45,10.39,2.94,1.84,29.39-2.39,33.48-1.17,1.13-2.49.93-3.94.85,3.77,9.64,1.53,20.2-4.1,28.81-1.77,2.7-7.45,6.43-7.56,6.93-2.54,11.23-.14,15.8-10.25,25.6-1.66,1.61-7.32,4.33-7.53,4.72-2.11,3.85-.03,6.79-6.05,13.96-11.16,13.29-28.78,25.3-43.64,33.8-5.38,3.07-9.69,8.79-16.38,8.78l10.33-280.06c-1.99,11.31-.35,22.93-1.26,34.23-.22,2.68-1.9,4.58-2.03,6.37-5.8,79.38-4.28,159.46-8.67,238.52-.16,2.88-.95,4.49-3.56,5.46-.04,1.11,2.43.66,3.25,1.89,2.62,3.94-.65,31.95.62,38.76-1.3.55-2.57-3.01-2.57-3.22v-34.2Z"/>
</svg>